<svg width="241" height="173" viewBox="0 0 241 173" fill="none" xmlns="http://www.w3.org/2000/svg">
<path d="M123.42 0.0913086C157.283 0.0913086 188.324 14.505 210.899 36.6059C224.068 50.0587 234.415 66.3941 241 85.6123H186.443C183.621 80.8078 179.858 76.0032 176.096 72.1596C162.927 58.7068 144.114 50.0587 123.42 50.0587C102.726 50.0587 84.8535 58.7068 70.7439 72.1596C57.5749 85.6123 49.1091 104.831 49.1091 125.971C49.1091 129.814 49.1091 133.658 50.0497 136.541L8.66149 172.094C3.01764 157.681 0.19574 142.306 0.19574 125.01C0.19574 90.4169 14.3054 58.7068 35.9401 35.645C58.5155 14.505 89.5567 0.0913086 123.42 0.0913086Z" fill="#3880F4"/>
</svg>
