<svg width="198" height="197" viewBox="0 0 198 197" fill="none" xmlns="http://www.w3.org/2000/svg">
<path d="M137.476 141.357C120.936 157.116 99.0673 164.522 77.7555 164.233C65.0628 163.791 52.4068 160.628 40.247 154.306L66.8942 128.916C70.5085 129.949 74.5821 130.545 78.2086 130.671C90.9014 131.113 104.115 126.582 114.222 116.951C124.33 107.321 129.034 94.7795 129.665 81.6424C129.837 68.9432 125.028 55.6167 115.19 45.2913C113.401 43.414 111.612 41.5367 109.811 40.5664L113.48 3.93978C122.945 8.35325 131.478 14.5493 139.527 22.9974C155.626 39.8934 163.492 61.9477 163.657 83.2801C162.469 104.112 154.016 125.598 137.476 141.357Z" fill="#99F2DC"/>
</svg>
