<svg width="290" height="206" viewBox="0 0 290 206" fill="none" xmlns="http://www.w3.org/2000/svg">
<path d="M148.398 0C189.18 0 226.563 17.2626 253.75 43.7319C269.609 59.8436 282.07 79.4078 290 102.425H224.297C220.898 96.6704 216.367 90.9162 211.836 86.3128C195.977 70.2011 173.32 59.8436 148.398 59.8436C123.477 59.8436 101.953 70.2011 84.9609 86.3128C69.1016 102.425 58.9062 125.441 58.9062 150.76C58.9062 155.363 58.9062 159.966 60.0391 163.419L10.1953 206C3.39841 188.737 0 170.324 0 149.609C0 108.179 16.9922 70.2011 43.0469 42.581C70.2344 17.2626 107.617 0 148.398 0Z" fill="#3880F4"/>
</svg>
