<svg width="516" height="145" viewBox="0 0 516 145" fill="none" xmlns="http://www.w3.org/2000/svg">
<path d="M145.554 124.933C157.969 137.079 175.04 145 193.662 145C212.285 145 229.356 137.079 241.771 125.461C248.955 117.808 254.631 108.421 258 98L228.359 98C226.715 100.708 224.788 103.191 222.631 105.393C214.871 112.787 205.043 117.539 193.662 117.539C182.282 117.539 171.936 112.787 164.694 105.393C162.624 103.281 160.555 100.64 159.003 98L129 98C132.621 108.562 138.311 117.539 145.554 124.933Z" fill="#3880F4"/>
<path d="M137.554 73.9326C149.969 86.0786 167.04 94 185.662 94C204.285 94 221.356 86.0787 233.771 74.4607C240.955 66.8076 246.631 57.4215 250 47L220.359 47C218.715 49.7083 216.788 52.1913 214.631 54.3933C206.871 61.7865 197.043 66.5393 185.662 66.5393C174.282 66.5393 163.936 61.7865 156.694 54.3933C154.624 52.2809 152.555 49.6405 151.003 47L121 47C124.621 57.5618 130.311 66.5393 137.554 73.9326Z" fill="#99F2DC"/>
<path d="M403.554 124.933C415.969 137.079 433.04 145 451.662 145C470.285 145 487.356 137.079 499.771 125.461C506.955 117.808 512.631 108.421 516 98L486.359 98C484.715 100.708 482.788 103.191 480.631 105.393C472.871 112.787 463.043 117.539 451.662 117.539C440.282 117.539 429.936 112.787 422.694 105.393C420.624 103.281 418.555 100.64 417.003 98L387 98C390.621 108.562 396.311 117.539 403.554 124.933Z" fill="#3880F4"/>
<path d="M395.554 73.9326C407.969 86.0786 425.04 94 443.662 94C462.285 94 479.356 86.0787 491.771 74.4607C498.955 66.8076 504.631 57.4215 508 47L478.359 47C476.715 49.7083 474.788 52.1913 472.631 54.3933C464.871 61.7865 455.043 66.5393 443.662 66.5393C432.282 66.5393 421.936 61.7865 414.694 54.3933C412.624 52.2809 410.555 49.6405 409.003 47L379 47C382.621 57.5618 388.311 66.5393 395.554 73.9326Z" fill="#99F2DC"/>
<path d="M370.446 71.0674C358.031 58.9214 340.96 51 322.338 51C303.715 51 286.644 58.9213 274.229 70.5393C267.045 78.1924 261.369 87.5786 258 98L287.641 98C289.285 95.2917 291.212 92.8087 293.369 90.6067C301.129 83.2135 310.957 78.4607 322.338 78.4607C333.718 78.4607 344.064 83.2135 351.306 90.6067C353.376 92.7191 355.445 95.3595 356.997 98H387C383.379 87.4382 377.689 78.4607 370.446 71.0674Z" fill="#3880F4"/>
<path d="M362.446 20.0674C350.031 7.92135 332.96 0 314.338 0C295.715 0 278.644 7.92134 266.229 19.5393C259.045 27.1924 253.369 36.5786 250 47L279.641 47C281.285 44.2917 283.212 41.8087 285.369 39.6067C293.129 32.2135 302.957 27.4607 314.338 27.4607C325.718 27.4607 336.064 32.2135 343.306 39.6067C345.376 41.7191 347.445 44.3595 348.997 47H379C375.379 36.4382 369.689 27.4607 362.446 20.0674Z" fill="#99F2DC"/>
<path d="M112.446 71.0674C100.031 58.9214 82.9605 51 64.3378 51C45.715 51 28.6442 58.9213 16.229 70.5393C9.04467 78.1924 3.36924 87.5786 0 98L29.6412 98C31.2846 95.2917 33.2121 92.8087 35.3691 90.6067C43.1285 83.2135 52.9572 78.4607 64.3378 78.4607C75.7183 78.4607 86.0643 83.2135 93.3064 90.6067C95.3756 92.7191 97.4448 95.3595 98.9967 98H129C125.379 87.4382 119.689 78.4607 112.446 71.0674Z" fill="#3880F4"/>
</svg>
