<svg width="22" height="22" viewBox="0 0 22 22" fill="none" xmlns="http://www.w3.org/2000/svg">
<path d="M10.9998 8.81246C9.79387 8.81246 8.81197 9.79387 8.81197 10.9998C8.81197 12.2061 9.79387 13.188 10.9998 13.188C12.2061 13.188 13.1875 12.2061 13.1875 10.9998C13.1875 9.79387 12.2061 8.81246 10.9998 8.81246ZM10.9998 8.81246C9.79387 8.81246 8.81197 9.79387 8.81197 10.9998C8.81197 12.2061 9.79387 13.188 10.9998 13.188C12.2061 13.188 13.1875 12.2061 13.1875 10.9998C13.1875 9.79387 12.2061 8.81246 10.9998 8.81246ZM14.6445 5.24547H7.35554C6.19213 5.24547 5.24547 6.19213 5.24547 7.35554V14.6445C5.24547 15.8079 6.19213 16.7545 7.35554 16.7545H14.6445C15.8079 16.7545 16.7545 15.8079 16.7545 14.6445V7.35554C16.7545 6.19213 15.8079 5.24547 14.6445 5.24547ZM10.9998 14.7888C8.91093 14.7888 7.2112 13.0891 7.2112 10.9998C7.2112 8.91093 8.91093 7.2112 10.9998 7.2112C13.0891 7.2112 14.7888 8.91093 14.7888 10.9998C14.7888 13.0891 13.0891 14.7888 10.9998 14.7888ZM14.9104 7.99469C14.4161 7.99469 14.014 7.59256 14.014 7.09824C14.014 6.60391 14.4161 6.20179 14.9104 6.20179C15.4048 6.20179 15.8069 6.60391 15.8069 7.09824C15.8069 7.59256 15.4048 7.99469 14.9104 7.99469ZM10.9998 8.81246C9.79387 8.81246 8.81197 9.79387 8.81197 10.9998C8.81197 12.2061 9.79387 13.188 10.9998 13.188C12.2061 13.188 13.1875 12.2061 13.1875 10.9998C13.1875 9.79387 12.2061 8.81246 10.9998 8.81246ZM14.6445 5.24547H7.35554C6.19213 5.24547 5.24547 6.19213 5.24547 7.35554V14.6445C5.24547 15.8079 6.19213 16.7545 7.35554 16.7545H14.6445C15.8079 16.7545 16.7545 15.8079 16.7545 14.6445V7.35554C16.7545 6.19213 15.8079 5.24547 14.6445 5.24547ZM10.9998 14.7888C8.91093 14.7888 7.2112 13.0891 7.2112 10.9998C7.2112 8.91093 8.91093 7.2112 10.9998 7.2112C13.0891 7.2112 14.7888 8.91093 14.7888 10.9998C14.7888 13.0891 13.0891 14.7888 10.9998 14.7888ZM14.9104 7.99469C14.4161 7.99469 14.014 7.59256 14.014 7.09824C14.014 6.60391 14.4161 6.20179 14.9104 6.20179C15.4048 6.20179 15.8069 6.60391 15.8069 7.09824C15.8069 7.59256 15.4048 7.99469 14.9104 7.99469ZM10.9998 8.81246C9.79387 8.81246 8.81197 9.79387 8.81197 10.9998C8.81197 12.2061 9.79387 13.188 10.9998 13.188C12.2061 13.188 13.1875 12.2061 13.1875 10.9998C13.1875 9.79387 12.2061 8.81246 10.9998 8.81246ZM1 0C0.447716 0 0 0.447715 0 1V21C0 21.5523 0.447715 22 1 22H21C21.5523 22 22 21.5523 22 21V1C22 0.447716 21.5523 0 21 0H1ZM18.3553 14.6445C18.3553 16.6908 16.6908 18.3553 14.6445 18.3553H7.35554C5.3092 18.3553 3.6447 16.6908 3.6447 14.6445V7.35554C3.6447 5.3092 5.3092 3.6447 7.35554 3.6447H14.6445C16.6908 3.6447 18.3553 5.3092 18.3553 7.35554V14.6445ZM14.6445 5.24547H7.35554C6.19213 5.24547 5.24547 6.19213 5.24547 7.35554V14.6445C5.24547 15.8079 6.19213 16.7545 7.35554 16.7545H14.6445C15.8079 16.7545 16.7545 15.8079 16.7545 14.6445V7.35554C16.7545 6.19213 15.8079 5.24547 14.6445 5.24547ZM10.9998 14.7888C8.91093 14.7888 7.2112 13.0891 7.2112 10.9998C7.2112 8.91093 8.91093 7.2112 10.9998 7.2112C13.0891 7.2112 14.7888 8.91093 14.7888 10.9998C14.7888 13.0891 13.0891 14.7888 10.9998 14.7888ZM14.9104 7.99469C14.4161 7.99469 14.014 7.59256 14.014 7.09824C14.014 6.60391 14.4161 6.20179 14.9104 6.20179C15.4048 6.20179 15.8069 6.60391 15.8069 7.09824C15.8069 7.59256 15.4048 7.99469 14.9104 7.99469ZM10.9998 8.81246C9.79387 8.81246 8.81197 9.79387 8.81197 10.9998C8.81197 12.2061 9.79387 13.188 10.9998 13.188C12.2061 13.188 13.1875 12.2061 13.1875 10.9998C13.1875 9.79387 12.2061 8.81246 10.9998 8.81246ZM10.9998 8.81246C9.79387 8.81246 8.81197 9.79387 8.81197 10.9998C8.81197 12.2061 9.79387 13.188 10.9998 13.188C12.2061 13.188 13.1875 12.2061 13.1875 10.9998C13.1875 9.79387 12.2061 8.81246 10.9998 8.81246ZM10.9998 8.81246C9.79387 8.81246 8.81197 9.79387 8.81197 10.9998C8.81197 12.2061 9.79387 13.188 10.9998 13.188C12.2061 13.188 13.1875 12.2061 13.1875 10.9998C13.1875 9.79387 12.2061 8.81246 10.9998 8.81246ZM14.6445 5.24547H7.35554C6.19213 5.24547 5.24547 6.19213 5.24547 7.35554V14.6445C5.24547 15.8079 6.19213 16.7545 7.35554 16.7545H14.6445C15.8079 16.7545 16.7545 15.8079 16.7545 14.6445V7.35554C16.7545 6.19213 15.8079 5.24547 14.6445 5.24547ZM10.9998 14.7888C8.91093 14.7888 7.2112 13.0891 7.2112 10.9998C7.2112 8.91093 8.91093 7.2112 10.9998 7.2112C13.0891 7.2112 14.7888 8.91093 14.7888 10.9998C14.7888 13.0891 13.0891 14.7888 10.9998 14.7888ZM14.9104 7.99469C14.4161 7.99469 14.014 7.59256 14.014 7.09824C14.014 6.60391 14.4161 6.20179 14.9104 6.20179C15.4048 6.20179 15.8069 6.60391 15.8069 7.09824C15.8069 7.59256 15.4048 7.99469 14.9104 7.99469ZM10.9998 8.81246C9.79387 8.81246 8.81197 9.79387 8.81197 10.9998C8.81197 12.2061 9.79387 13.188 10.9998 13.188C12.2061 13.188 13.1875 12.2061 13.1875 10.9998C13.1875 9.79387 12.2061 8.81246 10.9998 8.81246ZM10.9998 8.81246C9.79387 8.81246 8.81197 9.79387 8.81197 10.9998C8.81197 12.2061 9.79387 13.188 10.9998 13.188C12.2061 13.188 13.1875 12.2061 13.1875 10.9998C13.1875 9.79387 12.2061 8.81246 10.9998 8.81246ZM10.9998 8.81246C9.79387 8.81246 8.81197 9.79387 8.81197 10.9998C8.81197 12.2061 9.79387 13.188 10.9998 13.188C12.2061 13.188 13.1875 12.2061 13.1875 10.9998C13.1875 9.79387 12.2061 8.81246 10.9998 8.81246ZM14.6445 5.24547H7.35554C6.19213 5.24547 5.24547 6.19213 5.24547 7.35554V14.6445C5.24547 15.8079 6.19213 16.7545 7.35554 16.7545H14.6445C15.8079 16.7545 16.7545 15.8079 16.7545 14.6445V7.35554C16.7545 6.19213 15.8079 5.24547 14.6445 5.24547ZM10.9998 14.7888C8.91093 14.7888 7.2112 13.0891 7.2112 10.9998C7.2112 8.91093 8.91093 7.2112 10.9998 7.2112C13.0891 7.2112 14.7888 8.91093 14.7888 10.9998C14.7888 13.0891 13.0891 14.7888 10.9998 14.7888ZM14.9104 7.99469C14.4161 7.99469 14.014 7.59256 14.014 7.09824C14.014 6.60391 14.4161 6.20179 14.9104 6.20179C15.4048 6.20179 15.8069 6.60391 15.8069 7.09824C15.8069 7.59256 15.4048 7.99469 14.9104 7.99469ZM10.9998 8.81246C9.79387 8.81246 8.81197 9.79387 8.81197 10.9998C8.81197 12.2061 9.79387 13.188 10.9998 13.188C12.2061 13.188 13.1875 12.2061 13.1875 10.9998C13.1875 9.79387 12.2061 8.81246 10.9998 8.81246Z" fill="#E0E0E0"/>
</svg>
