<svg width="22" height="22" viewBox="0 0 22 22" fill="none" xmlns="http://www.w3.org/2000/svg">
<path fill-rule="evenodd" clip-rule="evenodd" d="M1 0C0.447715 0 0 0.447716 0 1V21C0 21.5523 0.447716 22 1 22H21C21.5523 22 22 21.5523 22 21V1C22 0.447715 21.5523 0 21 0H1ZM7.27856 11.489L4.03424 10.2781C3.70472 10.1547 3.70186 9.68946 4.03044 9.56274L17.3452 4.4263C17.6275 4.31714 17.9187 4.56443 17.8573 4.86086L15.4678 16.3544C15.4115 16.6258 15.0933 16.7489 14.8688 16.5856L11.607 14.2175C11.4089 14.0737 11.1389 14.0814 10.9493 14.2359L9.14088 15.7101C8.93094 15.8818 8.61466 15.7862 8.53431 15.5275L7.27856 11.489ZM14.6725 6.93926L8.33193 10.8444C8.08891 10.9944 7.97449 11.2879 8.05301 11.5627L8.73856 13.9715C8.78723 14.1422 9.03499 14.1247 9.0586 13.9483L9.23686 12.6274C9.27046 12.3787 9.38911 12.1495 9.57304 11.9783L14.8059 7.11413C14.9037 7.02336 14.7865 6.86928 14.6725 6.93926Z" fill="#E0E0E0"/>
</svg>
