<svg width="22" height="22" viewBox="0 0 22 22" fill="none" xmlns="http://www.w3.org/2000/svg">
<path fill-rule="evenodd" clip-rule="evenodd" d="M1 0C0.447716 0 0 0.447715 0 1V21C0 21.5523 0.447715 22 1 22H21C21.5523 22 22 21.5523 22 21V1C22 0.447716 21.5523 0 21 0H1ZM16.4926 12.1714C16.9977 12.6641 17.5317 13.128 17.985 13.6727C18.1853 13.9134 18.3747 14.1617 18.5191 14.4406C18.7241 14.8401 18.5383 15.2779 18.1814 15.302L15.9632 15.3011C15.3907 15.3481 14.9345 15.1173 14.5497 14.7256C14.2437 14.4137 13.9577 14.0799 13.6623 13.7574C13.5421 13.6247 13.415 13.5005 13.264 13.4015C12.9609 13.2051 12.6981 13.2647 12.5249 13.5803C12.3488 13.9018 12.3074 14.2588 12.2911 14.6168C12.267 15.1393 12.1093 15.276 11.5849 15.3011C10.4627 15.3531 9.3985 15.1826 8.41014 14.6177C7.5373 14.1194 6.86182 13.4148 6.27377 12.6181C5.12774 11.0648 4.25001 9.35962 3.46193 7.60533C3.2838 7.20996 3.41392 6.99808 3.84869 6.99044C4.57349 6.97613 5.29799 6.97787 6.02176 6.98947C6.31618 6.9944 6.51152 7.16267 6.62413 7.44079C7.01582 8.40328 7.49494 9.31925 8.09634 10.1691C8.25721 10.3953 8.42078 10.6204 8.65258 10.7801C8.90952 10.9572 9.10587 10.8993 9.22704 10.6116C9.30416 10.4288 9.33791 10.2344 9.35416 10.0391C9.41179 9.37021 9.41871 8.70064 9.31944 8.03377C9.25784 7.61693 9.02213 7.34742 8.6065 7.26861C8.39462 7.22819 8.42639 7.15034 8.52841 7.02888C8.7075 6.82024 8.87601 6.69013 9.20983 6.69013H11.4269C11.6196 6.69013 11.8241 6.68549 11.9891 6.78509C12.1604 6.88843 12.2163 7.06012 12.2545 7.34273L12.2565 10.1287C12.2518 10.2827 12.3336 10.7387 12.6097 10.8397C12.8309 10.9128 12.9783 10.7347 13.111 10.5943C13.7114 9.9572 14.1398 9.20388 14.5226 8.4244C14.6921 8.08174 14.8384 7.72577 14.9808 7.36952C15.0858 7.1059 15.2493 6.97608 15.5467 6.98077L17.9602 6.98372C18.0314 6.98372 18.1046 6.98372 18.1748 6.99527C18.5808 7.06548 18.6924 7.24066 18.5663 7.63801C18.3692 8.26054 17.9831 8.78032 17.607 9.30087C17.2037 9.85813 16.7745 10.3959 16.3742 10.9561C16.0086 11.4691 16.0374 11.727 16.4926 12.1714Z" fill="#E0E0E0"/>
</svg>
