<svg width="110" height="50" viewBox="0 0 110 50" fill="none" xmlns="http://www.w3.org/2000/svg">
<path d="M79.6269 3.34096e-07C84.4428 1.23586e-07 88.7388 0.564663 92.5149 1.69399C96.291 2.78688 99.4925 4.42623 102.119 6.61202C104.692 8.76138 106.662 11.439 108.03 14.6448C109.343 17.8506 110 21.5483 110 25.7377C110 29.745 109.398 33.2605 108.194 36.2841C106.99 39.3078 105.239 41.8397 102.94 43.8798C100.587 45.9199 97.7139 47.4499 94.3209 48.4699C90.8731 49.49 86.9328 50 82.5 50C79.4901 50 76.6716 49.7086 74.0448 49.1257C71.3632 48.5064 68.9005 47.6138 66.6567 46.4481C64.3582 45.2459 62.2239 43.7705 60.2537 42.0219C58.2289 40.2368 56.3134 38.1967 54.5075 35.9016C52.9751 37.7596 51.3333 39.4353 49.5821 40.929C47.7761 42.4226 45.8333 43.6976 43.7537 44.7541C41.6194 45.8106 39.2935 46.612 36.7761 47.1585C34.2587 47.7049 31.5224 47.9781 28.5672 47.9781C24.2985 47.9781 20.4403 47.4863 16.9925 46.5027C13.4901 45.4827 10.4801 43.9891 7.96269 42.0219C5.39055 40.0182 3.4204 37.5228 2.05224 34.5355C0.684079 31.5483 -9.57829e-07 28.0874 -1.12981e-06 24.153C-1.30019e-06 20.255 0.629352 16.9217 1.88806 14.153C3.14676 11.3479 4.92537 9.05283 7.22388 7.26776C9.52239 5.4827 12.2861 4.17122 15.5149 3.33334C18.6891 2.45902 22.2189 2.02186 26.1045 2.02186C28.6766 2.02186 31.194 2.3133 33.6567 2.89618C36.0647 3.44263 38.3632 4.22587 40.5522 5.2459C42.7413 6.26594 44.8209 7.52277 46.791 9.01639C48.7065 10.51 50.4577 12.204 52.0448 14.0984C53.796 11.8761 55.6567 9.89071 57.6269 8.14208C59.597 6.39344 61.7313 4.91803 64.0299 3.71585C66.2736 2.51366 68.6816 1.60291 71.2537 0.983605C73.8259 0.32787 76.6169 4.65665e-07 79.6269 3.34096e-07ZM28.0746 15.847C26.1592 15.847 24.4353 16.0291 22.903 16.3934C21.3706 16.7577 20.0846 17.3406 19.0448 18.1421C17.9502 18.9071 17.1294 19.8725 16.5821 21.0383C16.0348 22.1676 15.7612 23.5155 15.7612 25.082C15.7612 28.1421 16.8284 30.4189 18.9627 31.9126C21.0423 33.4062 23.9428 34.153 27.6642 34.153C29.4154 34.153 31.0299 33.9709 32.5075 33.6066C33.9851 33.2058 35.3806 32.6047 36.694 31.8033C38.0075 31.0018 39.2935 29.9636 40.5522 28.6885C41.8109 27.4135 43.1517 25.9016 44.5746 24.153C42.2214 21.4936 39.704 19.4536 37.0224 18.0328C34.3408 16.5756 31.3582 15.847 28.0746 15.847ZM81.1045 14.2076C79.0796 14.2076 77.2463 14.4444 75.6045 14.918C73.908 15.3552 72.3209 16.0656 70.8433 17.0492C69.3657 17.9964 67.9428 19.1985 66.5746 20.6557C65.2065 22.1129 63.8109 23.8069 62.3881 25.7377C63.7562 27.4135 65.1244 28.8889 66.4925 30.1639C67.8607 31.439 69.311 32.4954 70.8433 33.3333C72.3209 34.1712 73.908 34.8087 75.6045 35.2459C77.2463 35.6466 79.0249 35.847 80.9403 35.847C85.209 35.847 88.4652 34.9362 90.709 33.1148C92.9527 31.2568 94.0746 28.5064 94.0746 24.8634C94.0746 21.2933 92.9254 18.6339 90.6269 16.8852C88.3284 15.1002 85.1542 14.2076 81.1045 14.2076Z" fill="#99F2DC"/>
</svg>
