<svg width="211" height="42" viewBox="0 0 211 42" fill="none" xmlns="http://www.w3.org/2000/svg">
<path d="M122.383 2.78833C122.383 3.10734 122.357 3.33236 122.306 3.46338C122.26 3.5887 122.192 3.65137 122.101 3.65137H119.922V10.7351C119.922 10.7921 119.902 10.8405 119.862 10.8804C119.828 10.9202 119.768 10.9544 119.683 10.9829C119.603 11.0057 119.492 11.0228 119.349 11.0342C119.207 11.0456 119.028 11.0513 118.811 11.0513C118.589 11.0513 118.407 11.0456 118.264 11.0342C118.127 11.0228 118.016 11.0057 117.931 10.9829C117.851 10.9544 117.791 10.9202 117.751 10.8804C117.717 10.8405 117.7 10.7921 117.7 10.7351V3.65137H115.521C115.476 3.65137 115.433 3.63713 115.393 3.60864C115.359 3.58016 115.328 3.53174 115.299 3.46338C115.276 3.39502 115.259 3.30672 115.248 3.19849C115.236 3.08455 115.231 2.94784 115.231 2.78833C115.231 2.62313 115.236 2.48641 115.248 2.37817C115.259 2.26424 115.276 2.17594 115.299 2.11328C115.328 2.04492 115.359 1.9965 115.393 1.96802C115.433 1.93953 115.476 1.92529 115.521 1.92529H122.101C122.146 1.92529 122.186 1.93953 122.22 1.96802C122.255 1.9965 122.283 2.04492 122.306 2.11328C122.334 2.17594 122.354 2.26424 122.366 2.37817C122.377 2.48641 122.383 2.62313 122.383 2.78833ZM128.416 8.45361C128.21 8.9834 128.003 9.42204 127.792 9.76953C127.587 10.1113 127.365 10.3848 127.125 10.5898C126.886 10.7892 126.621 10.9316 126.331 11.0171C126.04 11.1025 125.71 11.1453 125.339 11.1453C125.191 11.1453 125.046 11.1339 124.904 11.1111C124.767 11.094 124.639 11.0684 124.519 11.0342C124.405 11 124.305 10.963 124.22 10.9231C124.14 10.8832 124.08 10.849 124.041 10.8206C124.001 10.7864 123.966 10.7465 123.938 10.7009C123.915 10.6497 123.895 10.5813 123.878 10.4958C123.861 10.4104 123.847 10.2993 123.835 10.1626C123.83 10.0259 123.827 9.85213 123.827 9.64136C123.827 9.3964 123.85 9.21981 123.895 9.11157C123.947 8.99764 124.012 8.94067 124.092 8.94067C124.132 8.94067 124.18 8.95776 124.237 8.99194C124.3 9.02612 124.368 9.06315 124.442 9.10303C124.522 9.1429 124.613 9.17993 124.716 9.21411C124.818 9.24829 124.932 9.26538 125.057 9.26538C125.149 9.26538 125.228 9.25684 125.297 9.23975C125.371 9.21696 125.439 9.18278 125.502 9.13721C125.564 9.08594 125.624 9.01758 125.681 8.93213C125.744 8.84098 125.806 8.7242 125.869 8.58179L122.981 2.68579C122.901 2.52629 122.853 2.39526 122.836 2.29272C122.824 2.18449 122.853 2.09904 122.921 2.03638C122.99 1.97371 123.103 1.93099 123.263 1.9082C123.422 1.88542 123.636 1.87402 123.904 1.87402C124.166 1.87972 124.374 1.88826 124.528 1.89966C124.687 1.91105 124.812 1.93669 124.904 1.97656C125 2.01074 125.074 2.06201 125.126 2.13037C125.183 2.19873 125.231 2.28703 125.271 2.39526L126.433 4.92456C126.547 5.16951 126.655 5.42586 126.758 5.6936C126.866 5.95565 126.969 6.212 127.065 6.46265H127.1C127.168 6.22909 127.239 5.99552 127.313 5.76196C127.393 5.52271 127.473 5.28914 127.552 5.06128L128.552 2.28418C128.581 2.19873 128.618 2.13037 128.663 2.0791C128.709 2.02783 128.777 1.98796 128.868 1.95947C128.965 1.93099 129.093 1.91105 129.253 1.89966C129.412 1.88826 129.62 1.87972 129.877 1.87402C130.122 1.87402 130.315 1.88257 130.458 1.89966C130.606 1.91675 130.711 1.94808 130.774 1.99365C130.837 2.03353 130.865 2.09619 130.859 2.18164C130.854 2.26709 130.825 2.37817 130.774 2.51489L128.416 8.45361ZM138.473 9.59863C138.473 9.83219 138.459 10.0173 138.43 10.1541C138.407 10.2908 138.353 10.4019 138.268 10.4873C138.188 10.5671 138.074 10.6468 137.926 10.7266C137.784 10.8063 137.61 10.8804 137.405 10.9487C137.2 11.0171 136.966 11.0712 136.704 11.1111C136.448 11.1567 136.169 11.1794 135.867 11.1794C135.2 11.1794 134.596 11.0826 134.055 10.8889C133.52 10.6952 133.061 10.4047 132.679 10.0173C132.298 9.62996 132.004 9.14575 131.799 8.5647C131.594 7.98364 131.492 7.30859 131.492 6.53955C131.492 5.76481 131.6 5.07837 131.816 4.48022C132.039 3.88208 132.343 3.38078 132.731 2.97632C133.124 2.57186 133.594 2.26709 134.141 2.06201C134.688 1.85124 135.291 1.74585 135.952 1.74585C136.197 1.74585 136.436 1.76579 136.67 1.80566C136.909 1.84554 137.128 1.89966 137.328 1.96802C137.533 2.03068 137.715 2.10474 137.875 2.19019C138.034 2.27563 138.154 2.35824 138.234 2.43799C138.313 2.51774 138.37 2.62882 138.405 2.77124C138.439 2.90796 138.456 3.11873 138.456 3.40356C138.456 3.56877 138.447 3.70549 138.43 3.81372C138.419 3.92196 138.402 4.01025 138.379 4.07861C138.356 4.14697 138.325 4.19539 138.285 4.22388C138.251 4.25236 138.211 4.2666 138.165 4.2666C138.097 4.2666 138.011 4.22957 137.909 4.15552C137.806 4.07576 137.673 3.99032 137.507 3.89917C137.342 3.80802 137.143 3.72542 136.909 3.65137C136.676 3.57161 136.396 3.53174 136.072 3.53174C135.719 3.53174 135.405 3.60295 135.132 3.74536C134.858 3.88208 134.628 4.07861 134.44 4.33496C134.257 4.59131 134.118 4.89893 134.021 5.25781C133.924 5.6167 133.876 6.01261 133.876 6.44556C133.876 6.95825 133.933 7.40259 134.047 7.77856C134.161 8.14884 134.32 8.45361 134.525 8.69287C134.736 8.92643 134.984 9.10018 135.269 9.21411C135.559 9.32235 135.881 9.37646 136.234 9.37646C136.53 9.37646 136.787 9.34229 137.003 9.27393C137.225 9.19987 137.416 9.12297 137.576 9.04321C137.735 8.95776 137.869 8.88086 137.977 8.8125C138.091 8.73844 138.182 8.70142 138.251 8.70142C138.291 8.70142 138.325 8.71281 138.353 8.7356C138.382 8.75838 138.405 8.80111 138.422 8.86377C138.439 8.92643 138.45 9.01758 138.456 9.13721C138.467 9.25114 138.473 9.40495 138.473 9.59863ZM148.915 6.34302C148.915 7.10636 148.812 7.78996 148.607 8.3938C148.408 8.99194 148.112 9.49894 147.719 9.91479C147.325 10.3306 146.838 10.6468 146.257 10.8633C145.682 11.0798 145.021 11.188 144.275 11.188C143.54 11.188 142.891 11.1025 142.327 10.9316C141.768 10.7607 141.298 10.4902 140.917 10.1199C140.535 9.7439 140.245 9.25968 140.045 8.66724C139.851 8.06909 139.755 7.35132 139.755 6.51392C139.755 5.77905 139.857 5.1154 140.062 4.52295C140.273 3.9305 140.575 3.4292 140.968 3.01904C141.361 2.60319 141.845 2.28703 142.421 2.07056C143.002 1.84839 143.665 1.7373 144.412 1.7373C145.118 1.7373 145.747 1.8256 146.3 2.0022C146.858 2.17879 147.331 2.45508 147.719 2.83105C148.106 3.20133 148.402 3.677 148.607 4.25806C148.812 4.83911 148.915 5.5341 148.915 6.34302ZM146.608 6.44556C146.608 5.98983 146.568 5.57967 146.488 5.21509C146.414 4.8505 146.289 4.54004 146.112 4.28369C145.935 4.02165 145.702 3.82227 145.411 3.68555C145.127 3.54883 144.776 3.48047 144.36 3.48047C143.927 3.48047 143.566 3.56022 143.275 3.71973C142.985 3.87354 142.748 4.08716 142.566 4.3606C142.389 4.62834 142.261 4.9388 142.181 5.29199C142.107 5.64518 142.07 6.01831 142.07 6.41138C142.07 6.89559 142.107 7.32568 142.181 7.70166C142.261 8.07764 142.389 8.39665 142.566 8.65869C142.743 8.91504 142.973 9.11157 143.258 9.24829C143.543 9.37931 143.893 9.44482 144.309 9.44482C144.731 9.44482 145.087 9.36792 145.377 9.21411C145.673 9.05461 145.913 8.84098 146.095 8.57324C146.277 8.2998 146.408 7.98079 146.488 7.61621C146.568 7.25163 146.608 6.86141 146.608 6.44556ZM158.254 8.23999C158.254 8.58179 158.203 8.88656 158.101 9.1543C158.004 9.42204 157.864 9.65845 157.682 9.86353C157.505 10.0686 157.295 10.2424 157.05 10.3848C156.805 10.5272 156.537 10.6468 156.246 10.7437C155.962 10.8348 155.657 10.9003 155.332 10.9402C155.007 10.9801 154.646 11 154.247 11H151.393C151.222 11 151.077 10.9487 150.957 10.8462C150.843 10.7437 150.786 10.5841 150.786 10.3677V2.55762C150.786 2.34115 150.843 2.18164 150.957 2.0791C151.077 1.97656 151.222 1.92529 151.393 1.92529H154.272C154.848 1.92529 155.341 1.96802 155.751 2.05347C156.167 2.13892 156.517 2.27563 156.802 2.46362C157.087 2.65161 157.306 2.89087 157.46 3.1814C157.614 3.47192 157.69 3.82227 157.69 4.23242C157.69 4.45459 157.659 4.66536 157.596 4.86475C157.539 5.05843 157.454 5.23787 157.34 5.40308C157.226 5.56258 157.087 5.70215 156.921 5.82178C156.762 5.94141 156.58 6.0354 156.375 6.10376C156.642 6.14933 156.89 6.22909 157.118 6.34302C157.346 6.45125 157.542 6.59652 157.708 6.77881C157.878 6.9554 158.012 7.16618 158.109 7.41113C158.206 7.65609 158.254 7.93237 158.254 8.23999ZM155.469 4.54004C155.469 4.37484 155.443 4.22673 155.392 4.0957C155.341 3.96468 155.261 3.8536 155.153 3.76245C155.044 3.67131 154.91 3.60295 154.751 3.55737C154.597 3.5118 154.384 3.48901 154.11 3.48901H152.931V5.64233H154.187C154.455 5.64233 154.663 5.61385 154.811 5.55688C154.959 5.49422 155.081 5.41447 155.178 5.31763C155.275 5.21509 155.346 5.09831 155.392 4.96729C155.443 4.83057 155.469 4.68815 155.469 4.54004ZM155.896 8.2998C155.896 8.11751 155.865 7.95516 155.802 7.81274C155.745 7.66463 155.654 7.53931 155.529 7.43677C155.409 7.33423 155.252 7.25732 155.059 7.20605C154.865 7.14909 154.6 7.12061 154.264 7.12061H152.931V9.42773H154.46C154.728 9.42773 154.945 9.4021 155.11 9.35083C155.275 9.29956 155.415 9.2255 155.529 9.12866C155.648 9.03182 155.739 8.91504 155.802 8.77832C155.865 8.6359 155.896 8.4764 155.896 8.2998ZM167.312 10.7522C167.312 10.8035 167.295 10.849 167.261 10.8889C167.227 10.9288 167.167 10.9601 167.081 10.9829C166.996 11.0057 166.879 11.0228 166.731 11.0342C166.589 11.0456 166.409 11.0513 166.193 11.0513C165.942 11.0513 165.737 11.0427 165.577 11.0256C165.418 11.0142 165.29 10.9972 165.193 10.9744C165.102 10.9459 165.033 10.9117 164.988 10.8718C164.948 10.8263 164.917 10.7721 164.894 10.7095L164.142 8.68433C164.034 8.3938 163.931 8.15169 163.834 7.95801C163.743 7.76432 163.638 7.61051 163.518 7.49658C163.404 7.38265 163.273 7.3029 163.125 7.25732C162.983 7.21175 162.812 7.18896 162.612 7.18896H162.228V10.7095C162.228 10.755 162.208 10.8006 162.168 10.8462C162.128 10.8861 162.063 10.9231 161.971 10.9573C161.886 10.9858 161.772 11.0085 161.63 11.0256C161.487 11.0427 161.316 11.0513 161.117 11.0513C160.906 11.0513 160.73 11.0427 160.587 11.0256C160.45 11.0085 160.339 10.9858 160.254 10.9573C160.168 10.9231 160.106 10.8861 160.066 10.8462C160.032 10.8006 160.015 10.755 160.015 10.7095V2.20728C160.015 2.15601 160.032 2.11043 160.066 2.07056C160.106 2.03068 160.168 1.9965 160.254 1.96802C160.339 1.93953 160.45 1.91675 160.587 1.89966C160.73 1.88257 160.906 1.87402 161.117 1.87402C161.316 1.87402 161.487 1.88257 161.63 1.89966C161.772 1.91675 161.886 1.93953 161.971 1.96802C162.063 1.9965 162.128 2.03068 162.168 2.07056C162.208 2.11043 162.228 2.15601 162.228 2.20728V5.49707H162.612C162.789 5.49707 162.946 5.47428 163.082 5.42871C163.219 5.38314 163.344 5.30623 163.458 5.198C163.572 5.08407 163.678 4.93311 163.774 4.74512C163.871 4.55713 163.971 4.32072 164.073 4.03589L164.723 2.22437C164.751 2.15601 164.783 2.09904 164.817 2.05347C164.851 2.00789 164.908 1.97371 164.988 1.95093C165.073 1.92244 165.19 1.90251 165.338 1.89111C165.486 1.87972 165.686 1.87402 165.936 1.87402C166.153 1.87402 166.329 1.87972 166.466 1.89111C166.608 1.90251 166.717 1.9196 166.791 1.94238C166.871 1.96517 166.925 1.9965 166.953 2.03638C166.987 2.07056 167.004 2.11043 167.004 2.15601C167.004 2.21297 166.993 2.28988 166.97 2.38672C166.947 2.47786 166.908 2.59749 166.851 2.74561L166.218 4.33496C166.093 4.66536 165.965 4.9388 165.834 5.15527C165.708 5.37174 165.577 5.55119 165.441 5.6936C165.31 5.83602 165.176 5.94995 165.039 6.0354C164.908 6.11515 164.774 6.17782 164.637 6.22339V6.24902C164.82 6.31738 164.988 6.40283 165.142 6.50537C165.295 6.60791 165.441 6.73893 165.577 6.89844C165.714 7.05794 165.845 7.25448 165.97 7.48804C166.101 7.7159 166.233 7.98649 166.364 8.2998L167.133 10.1797C167.172 10.2708 167.204 10.3477 167.227 10.4104C167.249 10.4731 167.266 10.5272 167.278 10.5728C167.295 10.6126 167.303 10.6468 167.303 10.6753C167.309 10.7038 167.312 10.7294 167.312 10.7522ZM176.84 10.1882C176.902 10.3876 176.945 10.5443 176.968 10.6582C176.991 10.7721 176.971 10.8604 176.908 10.9231C176.845 10.9801 176.729 11.0142 176.558 11.0256C176.392 11.0427 176.153 11.0513 175.84 11.0513C175.561 11.0513 175.341 11.0456 175.182 11.0342C175.022 11.0285 174.903 11.0171 174.823 11C174.743 10.9772 174.686 10.9459 174.652 10.906C174.624 10.8604 174.598 10.8006 174.575 10.7266L174.02 9.10303H170.516L169.995 10.6753C169.967 10.755 169.932 10.8206 169.893 10.8718C169.858 10.9174 169.799 10.9544 169.713 10.9829C169.633 11.0114 169.517 11.0285 169.363 11.0342C169.215 11.0456 169.018 11.0513 168.773 11.0513C168.517 11.0513 168.317 11.0427 168.175 11.0256C168.038 11.0085 167.941 10.9687 167.885 10.906C167.833 10.8433 167.816 10.7522 167.833 10.6326C167.856 10.5129 167.899 10.3563 167.961 10.1626L170.815 2.29272C170.85 2.20158 170.889 2.13037 170.935 2.0791C170.986 2.02214 171.063 1.97941 171.166 1.95093C171.268 1.92244 171.408 1.90251 171.584 1.89111C171.761 1.87972 171.995 1.87402 172.285 1.87402C172.519 1.87402 172.718 1.87687 172.883 1.88257C173.054 1.88257 173.197 1.88826 173.311 1.89966C173.43 1.91105 173.527 1.92814 173.601 1.95093C173.675 1.96802 173.735 1.99365 173.781 2.02783C173.832 2.06201 173.872 2.10474 173.9 2.15601C173.929 2.20158 173.954 2.25854 173.977 2.3269L176.84 10.1882ZM172.285 3.73682H172.268L171.029 7.4624H173.533L172.285 3.73682ZM122.383 16.7883C122.383 17.1073 122.357 17.3324 122.306 17.4634C122.26 17.5887 122.192 17.6514 122.101 17.6514H119.922V24.7351C119.922 24.7921 119.902 24.8405 119.862 24.8804C119.828 24.9202 119.768 24.9544 119.683 24.9829C119.603 25.0057 119.492 25.0228 119.349 25.0342C119.207 25.0456 119.028 25.0513 118.811 25.0513C118.589 25.0513 118.407 25.0456 118.264 25.0342C118.127 25.0228 118.016 25.0057 117.931 24.9829C117.851 24.9544 117.791 24.9202 117.751 24.8804C117.717 24.8405 117.7 24.7921 117.7 24.7351V17.6514H115.521C115.476 17.6514 115.433 17.6371 115.393 17.6086C115.359 17.5802 115.328 17.5317 115.299 17.4634C115.276 17.395 115.259 17.3067 115.248 17.1985C115.236 17.0846 115.231 16.9478 115.231 16.7883C115.231 16.6231 115.236 16.4864 115.248 16.3782C115.259 16.2642 115.276 16.1759 115.299 16.1133C115.328 16.0449 115.359 15.9965 115.393 15.968C115.433 15.9395 115.476 15.9253 115.521 15.9253H122.101C122.146 15.9253 122.186 15.9395 122.22 15.968C122.255 15.9965 122.283 16.0449 122.306 16.1133C122.334 16.1759 122.354 16.2642 122.366 16.3782C122.377 16.4864 122.383 16.6231 122.383 16.7883ZM129.569 24.1711C129.569 24.325 129.561 24.456 129.543 24.5642C129.532 24.6667 129.515 24.7522 129.492 24.8206C129.469 24.8832 129.438 24.9288 129.398 24.9573C129.364 24.9858 129.324 25 129.279 25H124.374C124.203 25 124.058 24.9487 123.938 24.8462C123.824 24.7437 123.767 24.5841 123.767 24.3677V16.5576C123.767 16.3411 123.824 16.1816 123.938 16.0791C124.058 15.9766 124.203 15.9253 124.374 15.9253H129.244C129.29 15.9253 129.33 15.9395 129.364 15.968C129.404 15.9908 129.435 16.0335 129.458 16.0962C129.481 16.1589 129.498 16.2443 129.509 16.3525C129.521 16.4608 129.526 16.5946 129.526 16.7542C129.526 16.908 129.521 17.0361 129.509 17.1387C129.498 17.2412 129.481 17.3267 129.458 17.395C129.435 17.4577 129.404 17.5033 129.364 17.5317C129.33 17.5602 129.29 17.5745 129.244 17.5745H125.972V19.5227H128.749C128.794 19.5227 128.837 19.5369 128.877 19.5654C128.917 19.5882 128.948 19.6309 128.971 19.6936C128.999 19.7563 129.019 19.8417 129.031 19.95C129.042 20.0582 129.048 20.1892 129.048 20.343C129.048 20.4911 129.042 20.6193 129.031 20.7275C129.019 20.8301 128.999 20.9127 128.971 20.9753C128.948 21.038 128.917 21.0836 128.877 21.1121C128.837 21.1348 128.794 21.1462 128.749 21.1462H125.972V23.3508H129.279C129.324 23.3508 129.364 23.3651 129.398 23.3936C129.438 23.4163 129.469 23.4619 129.492 23.5303C129.515 23.5929 129.532 23.6784 129.543 23.7866C129.561 23.8892 129.569 24.0173 129.569 24.1711ZM138.84 24.7351C138.84 24.7864 138.82 24.8319 138.781 24.8718C138.746 24.9117 138.687 24.9459 138.601 24.9744C138.521 24.9972 138.41 25.0142 138.268 25.0256C138.125 25.0427 137.946 25.0513 137.729 25.0513C137.513 25.0513 137.334 25.0427 137.191 25.0256C137.054 25.0142 136.943 24.9972 136.858 24.9744C136.772 24.9459 136.713 24.9117 136.678 24.8718C136.65 24.8319 136.636 24.7864 136.636 24.7351V17.6599H134.893C134.75 18.748 134.608 19.6879 134.465 20.4797C134.323 21.2716 134.169 21.9438 134.004 22.4963C133.839 23.0432 133.656 23.4875 133.457 23.8293C133.263 24.1711 133.041 24.4389 132.791 24.6326C132.546 24.8206 132.269 24.9459 131.962 25.0085C131.654 25.0769 131.301 25.1111 130.902 25.1111C130.817 25.1111 130.745 25.0997 130.688 25.0769C130.632 25.0598 130.583 25.0228 130.543 24.9658C130.509 24.9089 130.483 24.8291 130.466 24.7266C130.449 24.6183 130.441 24.4788 130.441 24.3079C130.441 24.0686 130.446 23.8778 130.458 23.7354C130.469 23.5872 130.486 23.4733 130.509 23.3936C130.538 23.3138 130.572 23.2625 130.612 23.2397C130.657 23.2113 130.708 23.197 130.765 23.197C130.902 23.197 131.033 23.1685 131.158 23.1116C131.289 23.0546 131.412 22.9464 131.526 22.7869C131.64 22.6217 131.751 22.391 131.859 22.0947C131.967 21.7928 132.073 21.3969 132.175 20.907C132.284 20.4171 132.389 19.8218 132.491 19.1211C132.6 18.4204 132.708 17.583 132.816 16.6089C132.85 16.3696 132.91 16.1959 132.996 16.0876C133.081 15.9794 133.209 15.9253 133.38 15.9253H138.242C138.43 15.9253 138.575 15.9766 138.678 16.0791C138.786 16.1816 138.84 16.3411 138.84 16.5576V24.7351ZM146.949 24.1711C146.949 24.325 146.941 24.456 146.924 24.5642C146.912 24.6667 146.895 24.7522 146.873 24.8206C146.85 24.8832 146.818 24.9288 146.779 24.9573C146.744 24.9858 146.705 25 146.659 25H141.754C141.583 25 141.438 24.9487 141.318 24.8462C141.204 24.7437 141.147 24.5841 141.147 24.3677V16.5576C141.147 16.3411 141.204 16.1816 141.318 16.0791C141.438 15.9766 141.583 15.9253 141.754 15.9253H146.625C146.67 15.9253 146.71 15.9395 146.744 15.968C146.784 15.9908 146.816 16.0335 146.838 16.0962C146.861 16.1589 146.878 16.2443 146.89 16.3525C146.901 16.4608 146.907 16.5946 146.907 16.7542C146.907 16.908 146.901 17.0361 146.89 17.1387C146.878 17.2412 146.861 17.3267 146.838 17.395C146.816 17.4577 146.784 17.5033 146.744 17.5317C146.71 17.5602 146.67 17.5745 146.625 17.5745H143.352V19.5227H146.129C146.175 19.5227 146.217 19.5369 146.257 19.5654C146.297 19.5882 146.329 19.6309 146.351 19.6936C146.38 19.7563 146.4 19.8417 146.411 19.95C146.423 20.0582 146.428 20.1892 146.428 20.343C146.428 20.4911 146.423 20.6193 146.411 20.7275C146.4 20.8301 146.38 20.9127 146.351 20.9753C146.329 21.038 146.297 21.0836 146.257 21.1121C146.217 21.1348 146.175 21.1462 146.129 21.1462H143.352V23.3508H146.659C146.705 23.3508 146.744 23.3651 146.779 23.3936C146.818 23.4163 146.85 23.4619 146.873 23.5303C146.895 23.5929 146.912 23.6784 146.924 23.7866C146.941 23.8892 146.949 24.0173 146.949 24.1711ZM156.238 24.7522C156.238 24.8035 156.221 24.849 156.187 24.8889C156.152 24.9288 156.093 24.9601 156.007 24.9829C155.922 25.0057 155.805 25.0228 155.657 25.0342C155.514 25.0456 155.335 25.0513 155.118 25.0513C154.868 25.0513 154.663 25.0427 154.503 25.0256C154.344 25.0142 154.215 24.9972 154.119 24.9744C154.028 24.9459 153.959 24.9117 153.914 24.8718C153.874 24.8263 153.842 24.7721 153.82 24.7095L153.068 22.6843C152.959 22.3938 152.857 22.1517 152.76 21.958C152.669 21.7643 152.563 21.6105 152.444 21.4966C152.33 21.3826 152.199 21.3029 152.051 21.2573C151.908 21.2118 151.737 21.189 151.538 21.189H151.154V24.7095C151.154 24.755 151.134 24.8006 151.094 24.8462C151.054 24.8861 150.988 24.9231 150.897 24.9573C150.812 24.9858 150.698 25.0085 150.555 25.0256C150.413 25.0427 150.242 25.0513 150.043 25.0513C149.832 25.0513 149.655 25.0427 149.513 25.0256C149.376 25.0085 149.265 24.9858 149.18 24.9573C149.094 24.9231 149.032 24.8861 148.992 24.8462C148.958 24.8006 148.94 24.755 148.94 24.7095V16.2073C148.94 16.156 148.958 16.1104 148.992 16.0706C149.032 16.0307 149.094 15.9965 149.18 15.968C149.265 15.9395 149.376 15.9167 149.513 15.8997C149.655 15.8826 149.832 15.874 150.043 15.874C150.242 15.874 150.413 15.8826 150.555 15.8997C150.698 15.9167 150.812 15.9395 150.897 15.968C150.988 15.9965 151.054 16.0307 151.094 16.0706C151.134 16.1104 151.154 16.156 151.154 16.2073V19.4971H151.538C151.715 19.4971 151.871 19.4743 152.008 19.4287C152.145 19.3831 152.27 19.3062 152.384 19.198C152.498 19.0841 152.603 18.9331 152.7 18.7451C152.797 18.5571 152.897 18.3207 152.999 18.0359L153.649 16.2244C153.677 16.156 153.708 16.099 153.743 16.0535C153.777 16.0079 153.834 15.9737 153.914 15.9509C153.999 15.9224 154.116 15.9025 154.264 15.8911C154.412 15.8797 154.611 15.874 154.862 15.874C155.079 15.874 155.255 15.8797 155.392 15.8911C155.534 15.9025 155.642 15.9196 155.717 15.9424C155.796 15.9652 155.85 15.9965 155.879 16.0364C155.913 16.0706 155.93 16.1104 155.93 16.156C155.93 16.213 155.919 16.2899 155.896 16.3867C155.873 16.4779 155.833 16.5975 155.776 16.7456L155.144 18.335C155.019 18.6654 154.891 18.9388 154.76 19.1553C154.634 19.3717 154.503 19.5512 154.366 19.6936C154.235 19.836 154.102 19.95 153.965 20.0354C153.834 20.1152 153.7 20.1778 153.563 20.2234V20.249C153.746 20.3174 153.914 20.4028 154.067 20.5054C154.221 20.6079 154.366 20.7389 154.503 20.8984C154.64 21.0579 154.771 21.2545 154.896 21.488C155.027 21.7159 155.158 21.9865 155.289 22.2998L156.058 24.1797C156.098 24.2708 156.13 24.3477 156.152 24.4104C156.175 24.4731 156.192 24.5272 156.204 24.5728C156.221 24.6126 156.229 24.6468 156.229 24.6753C156.235 24.7038 156.238 24.7294 156.238 24.7522ZM166.261 20.343C166.261 21.1064 166.158 21.79 165.953 22.3938C165.754 22.9919 165.458 23.4989 165.065 23.9148C164.672 24.3306 164.185 24.6468 163.604 24.8633C163.028 25.0798 162.367 25.188 161.621 25.188C160.886 25.188 160.237 25.1025 159.673 24.9316C159.115 24.7607 158.645 24.4902 158.263 24.1199C157.881 23.7439 157.591 23.2597 157.391 22.6672C157.198 22.0691 157.101 21.3513 157.101 20.5139C157.101 19.7791 157.203 19.1154 157.408 18.5229C157.619 17.9305 157.921 17.4292 158.314 17.019C158.707 16.6032 159.191 16.287 159.767 16.0706C160.348 15.8484 161.012 15.7373 161.758 15.7373C162.464 15.7373 163.094 15.8256 163.646 16.0022C164.205 16.1788 164.677 16.4551 165.065 16.8311C165.452 17.2013 165.748 17.677 165.953 18.2581C166.158 18.8391 166.261 19.5341 166.261 20.343ZM163.954 20.4456C163.954 19.9898 163.914 19.5797 163.834 19.2151C163.76 18.8505 163.635 18.54 163.458 18.2837C163.282 18.0216 163.048 17.8223 162.758 17.6855C162.473 17.5488 162.122 17.4805 161.707 17.4805C161.274 17.4805 160.912 17.5602 160.621 17.7197C160.331 17.8735 160.094 18.0872 159.912 18.3606C159.736 18.6283 159.607 18.9388 159.528 19.292C159.454 19.6452 159.417 20.0183 159.417 20.4114C159.417 20.8956 159.454 21.3257 159.528 21.7017C159.607 22.0776 159.736 22.3966 159.912 22.6587C160.089 22.915 160.319 23.1116 160.604 23.2483C160.889 23.3793 161.239 23.4448 161.655 23.4448C162.077 23.4448 162.433 23.3679 162.723 23.2141C163.02 23.0546 163.259 22.841 163.441 22.5732C163.623 22.2998 163.754 21.9808 163.834 21.6162C163.914 21.2516 163.954 20.8614 163.954 20.4456ZM179.591 24.7351C179.591 24.7921 179.574 24.8405 179.54 24.8804C179.511 24.9202 179.457 24.9544 179.377 24.9829C179.303 25.0057 179.198 25.0228 179.061 25.0342C178.925 25.0456 178.751 25.0513 178.54 25.0513C178.324 25.0513 178.147 25.0456 178.01 25.0342C177.874 25.0228 177.765 25.0057 177.686 24.9829C177.606 24.9544 177.552 24.9202 177.523 24.8804C177.495 24.8405 177.48 24.7921 177.48 24.7351V17.7539H177.463L174.891 24.7778C174.869 24.8747 174.777 24.9459 174.618 24.9915C174.458 25.0313 174.199 25.0513 173.84 25.0513C173.658 25.0513 173.501 25.0456 173.37 25.0342C173.245 25.0228 173.142 25.0057 173.063 24.9829C172.983 24.9601 172.92 24.9316 172.875 24.8975C172.835 24.8633 172.806 24.8234 172.789 24.7778L170.251 17.7539H170.234V24.7351C170.234 24.7921 170.217 24.8405 170.183 24.8804C170.155 24.9202 170.101 24.9544 170.021 24.9829C169.947 25.0057 169.841 25.0228 169.705 25.0342C169.568 25.0456 169.391 25.0513 169.175 25.0513C168.958 25.0513 168.782 25.0456 168.645 25.0342C168.514 25.0228 168.409 25.0057 168.329 24.9829C168.255 24.9544 168.204 24.9202 168.175 24.8804C168.147 24.8405 168.132 24.7921 168.132 24.7351V16.6516C168.132 16.4181 168.198 16.2386 168.329 16.1133C168.46 15.988 168.634 15.9253 168.85 15.9253H170.345C170.602 15.9253 170.821 15.9481 171.003 15.9937C171.186 16.0392 171.342 16.1104 171.473 16.2073C171.604 16.3041 171.713 16.4351 171.798 16.6003C171.889 16.7598 171.969 16.9535 172.037 17.1814L173.892 22.0691H173.926L175.831 17.207C175.905 16.9678 175.985 16.7655 176.071 16.6003C176.162 16.4351 176.267 16.3041 176.387 16.2073C176.512 16.1047 176.657 16.0335 176.823 15.9937C176.988 15.9481 177.181 15.9253 177.404 15.9253H178.882C179.104 15.9253 179.278 15.988 179.403 16.1133C179.528 16.2386 179.591 16.4181 179.591 16.6516V24.7351ZM122.75 37.5986C122.75 37.8322 122.736 38.0173 122.708 38.1541C122.685 38.2908 122.631 38.4019 122.545 38.4873C122.465 38.5671 122.351 38.6468 122.203 38.7266C122.061 38.8063 121.887 38.8804 121.682 38.9487C121.477 39.0171 121.243 39.0712 120.981 39.1111C120.725 39.1567 120.446 39.1794 120.144 39.1794C119.478 39.1794 118.874 39.0826 118.333 38.8889C117.797 38.6952 117.338 38.4047 116.957 38.0173C116.575 37.63 116.282 37.1458 116.077 36.5647C115.872 35.9836 115.769 35.3086 115.769 34.5396C115.769 33.7648 115.877 33.0784 116.094 32.4802C116.316 31.8821 116.621 31.3808 117.008 30.9763C117.401 30.5719 117.871 30.2671 118.418 30.062C118.965 29.8512 119.569 29.7458 120.229 29.7458C120.474 29.7458 120.714 29.7658 120.947 29.8057C121.187 29.8455 121.406 29.8997 121.605 29.968C121.81 30.0307 121.993 30.1047 122.152 30.1902C122.312 30.2756 122.431 30.3582 122.511 30.438C122.591 30.5177 122.648 30.6288 122.682 30.7712C122.716 30.908 122.733 31.1187 122.733 31.4036C122.733 31.5688 122.725 31.7055 122.708 31.8137C122.696 31.922 122.679 32.0103 122.656 32.0786C122.633 32.147 122.602 32.1954 122.562 32.2239C122.528 32.2524 122.488 32.2666 122.443 32.2666C122.374 32.2666 122.289 32.2296 122.186 32.1555C122.084 32.0758 121.95 31.9903 121.785 31.8992C121.619 31.808 121.42 31.7254 121.187 31.6514C120.953 31.5716 120.674 31.5317 120.349 31.5317C119.996 31.5317 119.683 31.6029 119.409 31.7454C119.136 31.8821 118.905 32.0786 118.717 32.335C118.535 32.5913 118.395 32.8989 118.298 33.2578C118.201 33.6167 118.153 34.0126 118.153 34.4456C118.153 34.9583 118.21 35.4026 118.324 35.7786C118.438 36.1488 118.597 36.4536 118.802 36.6929C119.013 36.9264 119.261 37.1002 119.546 37.2141C119.836 37.3223 120.158 37.3765 120.511 37.3765C120.808 37.3765 121.064 37.3423 121.281 37.2739C121.503 37.1999 121.694 37.123 121.853 37.0432C122.013 36.9578 122.146 36.8809 122.255 36.8125C122.369 36.7384 122.46 36.7014 122.528 36.7014C122.568 36.7014 122.602 36.7128 122.631 36.7356C122.659 36.7584 122.682 36.8011 122.699 36.8638C122.716 36.9264 122.727 37.0176 122.733 37.1372C122.745 37.2511 122.75 37.4049 122.75 37.5986ZM133.192 34.343C133.192 35.1064 133.09 35.79 132.885 36.3938C132.685 36.9919 132.389 37.4989 131.996 37.9148C131.603 38.3306 131.116 38.6468 130.535 38.8633C129.959 39.0798 129.299 39.188 128.552 39.188C127.817 39.188 127.168 39.1025 126.604 38.9316C126.046 38.7607 125.576 38.4902 125.194 38.1199C124.812 37.7439 124.522 37.2597 124.323 36.6672C124.129 36.0691 124.032 35.3513 124.032 34.5139C124.032 33.7791 124.135 33.1154 124.34 32.5229C124.55 31.9305 124.852 31.4292 125.245 31.019C125.638 30.6032 126.123 30.287 126.698 30.0706C127.279 29.8484 127.943 29.7373 128.689 29.7373C129.395 29.7373 130.025 29.8256 130.577 30.0022C131.136 30.1788 131.608 30.4551 131.996 30.8311C132.383 31.2013 132.679 31.677 132.885 32.2581C133.09 32.8391 133.192 33.5341 133.192 34.343ZM130.885 34.4456C130.885 33.9898 130.845 33.5797 130.765 33.2151C130.691 32.8505 130.566 32.54 130.389 32.2837C130.213 32.0216 129.979 31.8223 129.689 31.6855C129.404 31.5488 129.054 31.4805 128.638 31.4805C128.205 31.4805 127.843 31.5602 127.552 31.7197C127.262 31.8735 127.026 32.0872 126.843 32.3606C126.667 32.6283 126.538 32.9388 126.459 33.292C126.385 33.6452 126.348 34.0183 126.348 34.4114C126.348 34.8956 126.385 35.3257 126.459 35.7017C126.538 36.0776 126.667 36.3966 126.843 36.6587C127.02 36.915 127.251 37.1116 127.535 37.2483C127.82 37.3793 128.171 37.4448 128.586 37.4448C129.008 37.4448 129.364 37.3679 129.655 37.2141C129.951 37.0546 130.19 36.841 130.372 36.5732C130.555 36.2998 130.686 35.9808 130.765 35.6162C130.845 35.2516 130.885 34.8614 130.885 34.4456ZM143.805 34.343C143.805 35.1064 143.702 35.79 143.497 36.3938C143.298 36.9919 143.002 37.4989 142.609 37.9148C142.216 38.3306 141.729 38.6468 141.147 38.8633C140.572 39.0798 139.911 39.188 139.165 39.188C138.43 39.188 137.781 39.1025 137.217 38.9316C136.659 38.7607 136.189 38.4902 135.807 38.1199C135.425 37.7439 135.135 37.2597 134.935 36.6672C134.742 36.0691 134.645 35.3513 134.645 34.5139C134.645 33.7791 134.747 33.1154 134.952 32.5229C135.163 31.9305 135.465 31.4292 135.858 31.019C136.251 30.6032 136.735 30.287 137.311 30.0706C137.892 29.8484 138.556 29.7373 139.302 29.7373C140.008 29.7373 140.638 29.8256 141.19 30.0022C141.748 30.1788 142.221 30.4551 142.609 30.8311C142.996 31.2013 143.292 31.677 143.497 32.2581C143.702 32.8391 143.805 33.5341 143.805 34.343ZM141.498 34.4456C141.498 33.9898 141.458 33.5797 141.378 33.2151C141.304 32.8505 141.179 32.54 141.002 32.2837C140.826 32.0216 140.592 31.8223 140.302 31.6855C140.017 31.5488 139.666 31.4805 139.25 31.4805C138.818 31.4805 138.456 31.5602 138.165 31.7197C137.875 31.8735 137.638 32.0872 137.456 32.3606C137.279 32.6283 137.151 32.9388 137.072 33.292C136.997 33.6452 136.96 34.0183 136.96 34.4114C136.96 34.8956 136.997 35.3257 137.072 35.7017C137.151 36.0776 137.279 36.3966 137.456 36.6587C137.633 36.915 137.863 37.1116 138.148 37.2483C138.433 37.3793 138.783 37.4448 139.199 37.4448C139.621 37.4448 139.977 37.3679 140.267 37.2141C140.564 37.0546 140.803 36.841 140.985 36.5732C141.167 36.2998 141.298 35.9808 141.378 35.6162C141.458 35.2516 141.498 34.8614 141.498 34.4456ZM152.965 36.146C152.965 36.4935 152.914 36.804 152.811 37.0774C152.709 37.3508 152.566 37.5929 152.384 37.8037C152.202 38.0145 151.985 38.1968 151.735 38.3506C151.484 38.4987 151.219 38.6212 150.94 38.718C150.661 38.8149 150.356 38.8861 150.026 38.9316C149.695 38.9772 149.319 39 148.898 39H146.3C146.123 39 145.978 38.9487 145.864 38.8462C145.75 38.7437 145.693 38.5841 145.693 38.3677V30.5576C145.693 30.3411 145.75 30.1816 145.864 30.0791C145.978 29.9766 146.123 29.9253 146.3 29.9253H152.025C152.076 29.9253 152.122 29.9395 152.162 29.968C152.202 29.9908 152.233 30.0335 152.256 30.0962C152.284 30.1589 152.304 30.2443 152.316 30.3525C152.333 30.4608 152.341 30.5946 152.341 30.7542C152.341 30.908 152.333 31.0361 152.316 31.1387C152.304 31.2412 152.284 31.3238 152.256 31.3865C152.227 31.4491 152.193 31.4947 152.153 31.5232C152.113 31.5517 152.068 31.5659 152.017 31.5659H147.898V33.5569H149.419C150.131 33.5569 150.684 33.6139 151.077 33.7278C151.475 33.836 151.814 34.0012 152.094 34.2234C152.373 34.4399 152.586 34.7104 152.734 35.0352C152.888 35.3542 152.965 35.7244 152.965 36.146ZM150.726 36.2571C150.726 36.0577 150.692 35.884 150.624 35.7358C150.555 35.5877 150.456 35.4653 150.325 35.3684C150.194 35.2716 150.034 35.2004 149.846 35.1548C149.664 35.1092 149.413 35.0864 149.094 35.0864H147.898V37.4021H149.111C149.499 37.4021 149.784 37.3736 149.966 37.3167C150.148 37.2597 150.293 37.1799 150.402 37.0774C150.516 36.9749 150.598 36.8524 150.649 36.71C150.701 36.5675 150.726 36.4166 150.726 36.2571ZM167.543 41.5037C167.543 41.5492 167.526 41.5891 167.491 41.6233C167.463 41.6632 167.409 41.6945 167.329 41.7173C167.255 41.7458 167.155 41.7657 167.03 41.7771C166.905 41.7942 166.745 41.8027 166.552 41.8027C166.358 41.8027 166.198 41.7942 166.073 41.7771C165.953 41.7657 165.857 41.7486 165.782 41.7258C165.714 41.703 165.666 41.6717 165.637 41.6318C165.609 41.5977 165.594 41.5549 165.594 41.5037V39H155.281C155.093 39 154.942 38.9487 154.828 38.8462C154.72 38.738 154.666 38.5785 154.666 38.3677V30.1646C154.666 30.119 154.683 30.0791 154.717 30.0449C154.757 30.005 154.819 29.9737 154.905 29.9509C154.99 29.9224 155.101 29.9025 155.238 29.8911C155.375 29.8797 155.549 29.874 155.759 29.874C156.152 29.874 156.431 29.8997 156.597 29.9509C156.762 29.9965 156.844 30.0677 156.844 30.1646V37.2825H159.493V30.156C159.493 30.1104 159.508 30.0706 159.536 30.0364C159.57 29.9965 159.63 29.9652 159.716 29.9424C159.801 29.9196 159.912 29.9025 160.049 29.8911C160.186 29.8797 160.356 29.874 160.562 29.874C160.767 29.874 160.935 29.8797 161.066 29.8911C161.202 29.9025 161.313 29.9196 161.399 29.9424C161.484 29.9652 161.544 29.9965 161.578 30.0364C161.613 30.0706 161.63 30.1104 161.63 30.156V37.2825H164.287V30.156C164.287 30.1104 164.304 30.0706 164.338 30.0364C164.378 29.9965 164.438 29.9652 164.518 29.9424C164.603 29.9196 164.714 29.9025 164.851 29.8911C164.993 29.8797 165.167 29.874 165.372 29.874C165.777 29.874 166.059 29.8968 166.218 29.9424C166.378 29.9823 166.458 30.0535 166.458 30.156V37.2825H167.158C167.295 37.2825 167.392 37.311 167.449 37.3679C167.511 37.4192 167.543 37.5246 167.543 37.6841V41.5037ZM174.874 38.1711C174.874 38.325 174.866 38.456 174.849 38.5642C174.837 38.6667 174.82 38.7522 174.797 38.8206C174.775 38.8832 174.743 38.9288 174.703 38.9573C174.669 38.9858 174.629 39 174.584 39H169.679C169.508 39 169.363 38.9487 169.243 38.8462C169.129 38.7437 169.072 38.5841 169.072 38.3677V30.5576C169.072 30.3411 169.129 30.1816 169.243 30.0791C169.363 29.9766 169.508 29.9253 169.679 29.9253H174.55C174.595 29.9253 174.635 29.9395 174.669 29.968C174.709 29.9908 174.74 30.0335 174.763 30.0962C174.786 30.1589 174.803 30.2443 174.814 30.3525C174.826 30.4608 174.832 30.5946 174.832 30.7542C174.832 30.908 174.826 31.0361 174.814 31.1387C174.803 31.2412 174.786 31.3267 174.763 31.395C174.74 31.4577 174.709 31.5033 174.669 31.5317C174.635 31.5602 174.595 31.5745 174.55 31.5745H171.277V33.5227H174.054C174.1 33.5227 174.142 33.5369 174.182 33.5654C174.222 33.5882 174.253 33.6309 174.276 33.6936C174.305 33.7563 174.325 33.8417 174.336 33.95C174.347 34.0582 174.353 34.1892 174.353 34.343C174.353 34.4911 174.347 34.6193 174.336 34.7275C174.325 34.8301 174.305 34.9127 174.276 34.9753C174.253 35.038 174.222 35.0836 174.182 35.1121C174.142 35.1348 174.1 35.1462 174.054 35.1462H171.277V37.3508H174.584C174.629 37.3508 174.669 37.3651 174.703 37.3936C174.743 37.4163 174.775 37.4619 174.797 37.5303C174.82 37.5929 174.837 37.6784 174.849 37.7866C174.866 37.8892 174.874 38.0173 174.874 38.1711ZM183.18 37.5986C183.18 37.8322 183.166 38.0173 183.137 38.1541C183.114 38.2908 183.06 38.4019 182.975 38.4873C182.895 38.5671 182.781 38.6468 182.633 38.7266C182.491 38.8063 182.317 38.8804 182.112 38.9487C181.907 39.0171 181.673 39.0712 181.411 39.1111C181.155 39.1567 180.876 39.1794 180.574 39.1794C179.907 39.1794 179.303 39.0826 178.762 38.8889C178.227 38.6952 177.768 38.4047 177.386 38.0173C177.005 37.63 176.711 37.1458 176.506 36.5647C176.301 35.9836 176.199 35.3086 176.199 34.5396C176.199 33.7648 176.307 33.0784 176.523 32.4802C176.746 31.8821 177.05 31.3808 177.438 30.9763C177.831 30.5719 178.301 30.2671 178.848 30.062C179.395 29.8512 179.998 29.7458 180.659 29.7458C180.904 29.7458 181.143 29.7658 181.377 29.8057C181.616 29.8455 181.836 29.8997 182.035 29.968C182.24 30.0307 182.422 30.1047 182.582 30.1902C182.741 30.2756 182.861 30.3582 182.941 30.438C183.02 30.5177 183.077 30.6288 183.112 30.7712C183.146 30.908 183.163 31.1187 183.163 31.4036C183.163 31.5688 183.154 31.7055 183.137 31.8137C183.126 31.922 183.109 32.0103 183.086 32.0786C183.063 32.147 183.032 32.1954 182.992 32.2239C182.958 32.2524 182.918 32.2666 182.872 32.2666C182.804 32.2666 182.719 32.2296 182.616 32.1555C182.513 32.0758 182.38 31.9903 182.214 31.8992C182.049 31.808 181.85 31.7254 181.616 31.6514C181.383 31.5716 181.104 31.5317 180.779 31.5317C180.426 31.5317 180.112 31.6029 179.839 31.7454C179.565 31.8821 179.335 32.0786 179.147 32.335C178.964 32.5913 178.825 32.8989 178.728 33.2578C178.631 33.6167 178.583 34.0126 178.583 34.4456C178.583 34.9583 178.64 35.4026 178.754 35.7786C178.868 36.1488 179.027 36.4536 179.232 36.6929C179.443 36.9264 179.691 37.1002 179.976 37.2141C180.266 37.3223 180.588 37.3765 180.941 37.3765C181.237 37.3765 181.494 37.3423 181.71 37.2739C181.932 37.1999 182.123 37.123 182.283 37.0432C182.442 36.9578 182.576 36.8809 182.684 36.8125C182.798 36.7384 182.889 36.7014 182.958 36.7014C182.998 36.7014 183.032 36.7128 183.06 36.7356C183.089 36.7584 183.112 36.8011 183.129 36.8638C183.146 36.9264 183.157 37.0176 183.163 37.1372C183.174 37.2511 183.18 37.4049 183.18 37.5986ZM191.118 30.7883C191.118 31.1073 191.093 31.3324 191.041 31.4634C190.996 31.5887 190.927 31.6514 190.836 31.6514H188.657V38.7351C188.657 38.7921 188.637 38.8405 188.597 38.8804C188.563 38.9202 188.503 38.9544 188.418 38.9829C188.338 39.0057 188.227 39.0228 188.085 39.0342C187.942 39.0456 187.763 39.0513 187.546 39.0513C187.324 39.0513 187.142 39.0456 187 39.0342C186.863 39.0228 186.752 39.0057 186.666 38.9829C186.587 38.9544 186.527 38.9202 186.487 38.8804C186.453 38.8405 186.436 38.7921 186.436 38.7351V31.6514H184.257C184.211 31.6514 184.168 31.6371 184.128 31.6086C184.094 31.5802 184.063 31.5317 184.034 31.4634C184.012 31.395 183.995 31.3067 183.983 31.1985C183.972 31.0846 183.966 30.9478 183.966 30.7883C183.966 30.6231 183.972 30.4864 183.983 30.3782C183.995 30.2642 184.012 30.1759 184.034 30.1133C184.063 30.0449 184.094 29.9965 184.128 29.968C184.168 29.9395 184.211 29.9253 184.257 29.9253H190.836C190.882 29.9253 190.922 29.9395 190.956 29.968C190.99 29.9965 191.018 30.0449 191.041 30.1133C191.07 30.1759 191.09 30.2642 191.101 30.3782C191.112 30.4864 191.118 30.6231 191.118 30.7883ZM199.971 36.24C199.971 36.5818 199.919 36.8866 199.817 37.1543C199.72 37.422 199.58 37.6584 199.398 37.8635C199.222 38.0686 199.011 38.2424 198.766 38.3848C198.521 38.5272 198.253 38.6468 197.963 38.7437C197.678 38.8348 197.373 38.9003 197.048 38.9402C196.724 38.9801 196.362 39 195.963 39H193.109C192.938 39 192.793 38.9487 192.673 38.8462C192.559 38.7437 192.502 38.5841 192.502 38.3677V30.5576C192.502 30.3411 192.559 30.1816 192.673 30.0791C192.793 29.9766 192.938 29.9253 193.109 29.9253H195.989C196.564 29.9253 197.057 29.968 197.467 30.0535C197.883 30.1389 198.233 30.2756 198.518 30.4636C198.803 30.6516 199.022 30.8909 199.176 31.1814C199.33 31.4719 199.407 31.8223 199.407 32.2324C199.407 32.4546 199.375 32.6654 199.313 32.8647C199.256 33.0584 199.17 33.2379 199.056 33.4031C198.942 33.5626 198.803 33.7021 198.638 33.8218C198.478 33.9414 198.296 34.0354 198.091 34.1038C198.359 34.1493 198.606 34.2291 198.834 34.343C199.062 34.4513 199.259 34.5965 199.424 34.7788C199.595 34.9554 199.729 35.1662 199.825 35.4111C199.922 35.6561 199.971 35.9324 199.971 36.24ZM197.185 32.54C197.185 32.3748 197.159 32.2267 197.108 32.0957C197.057 31.9647 196.977 31.8536 196.869 31.7625C196.761 31.6713 196.627 31.6029 196.467 31.5574C196.313 31.5118 196.1 31.489 195.826 31.489H194.647V33.6423H195.903C196.171 33.6423 196.379 33.6139 196.527 33.5569C196.675 33.4942 196.798 33.4145 196.895 33.3176C196.991 33.2151 197.063 33.0983 197.108 32.9673C197.159 32.8306 197.185 32.6882 197.185 32.54ZM197.612 36.2998C197.612 36.1175 197.581 35.9552 197.518 35.8127C197.461 35.6646 197.37 35.5393 197.245 35.4368C197.125 35.3342 196.969 35.2573 196.775 35.2061C196.581 35.1491 196.316 35.1206 195.98 35.1206H194.647V37.4277H196.177C196.444 37.4277 196.661 37.4021 196.826 37.3508C196.991 37.2996 197.131 37.2255 197.245 37.1287C197.365 37.0318 197.456 36.915 197.518 36.7783C197.581 36.6359 197.612 36.4764 197.612 36.2998ZM209.703 38.1882C209.766 38.3876 209.809 38.5443 209.832 38.6582C209.854 38.7721 209.834 38.8604 209.772 38.9231C209.709 38.9801 209.592 39.0142 209.421 39.0256C209.256 39.0427 209.017 39.0513 208.704 39.0513C208.424 39.0513 208.205 39.0456 208.046 39.0342C207.886 39.0285 207.767 39.0171 207.687 39C207.607 38.9772 207.55 38.9459 207.516 38.906C207.487 38.8604 207.462 38.8006 207.439 38.7266L206.884 37.103H203.38L202.859 38.6753C202.83 38.755 202.796 38.8206 202.756 38.8718C202.722 38.9174 202.662 38.9544 202.577 38.9829C202.497 39.0114 202.38 39.0285 202.227 39.0342C202.078 39.0456 201.882 39.0513 201.637 39.0513C201.381 39.0513 201.181 39.0427 201.039 39.0256C200.902 39.0085 200.805 38.9687 200.748 38.906C200.697 38.8433 200.68 38.7522 200.697 38.6326C200.72 38.5129 200.763 38.3563 200.825 38.1626L203.679 30.2927C203.713 30.2016 203.753 30.1304 203.799 30.0791C203.85 30.0221 203.927 29.9794 204.03 29.9509C204.132 29.9224 204.272 29.9025 204.448 29.8911C204.625 29.8797 204.858 29.874 205.149 29.874C205.382 29.874 205.582 29.8769 205.747 29.8826C205.918 29.8826 206.06 29.8883 206.174 29.8997C206.294 29.9111 206.391 29.9281 206.465 29.9509C206.539 29.968 206.599 29.9937 206.644 30.0278C206.696 30.062 206.735 30.1047 206.764 30.156C206.792 30.2016 206.818 30.2585 206.841 30.3269L209.703 38.1882ZM205.149 31.7368H205.132L203.893 35.4624H206.396L205.149 31.7368Z" fill="#3880F4"/>
<path d="M68.8382 40.2683L80.3112 30.2646C80.7469 30.5632 81.3278 30.8618 81.9087 31.1604L71.5975 40.2683H68.8382Z" fill="#3880F4"/>
<path d="M58.0913 40.2683L75.9544 24.4415C76.0996 25.0387 76.39 25.636 76.6805 26.0839L60.7054 40.2683H58.0913Z" fill="#3880F4"/>
<path d="M63.6099 40.2683L77.8423 27.7263C78.1328 28.1742 78.4232 28.4729 78.8589 28.9208L79.0041 29.0701L66.2241 40.2683H63.6099Z" fill="#3880F4"/>
<path d="M103.838 29.3687C102.967 31.3097 101.66 32.9521 100.207 34.4452C96.722 38.0287 92.0747 40.119 86.7013 40.119C86.2656 40.119 85.6847 40.119 85.249 40.2683H74.5021L83.9419 31.907C84.8133 32.0563 85.6847 32.2056 86.7013 32.2056C89.6058 32.2056 92.3651 31.0111 94.3983 29.2194H103.838V29.3687ZM86.8465 1C92.0747 1 96.8672 3.23964 100.353 6.67375C102.386 8.76407 103.983 11.3023 105 14.2885H96.5768C96.1411 13.542 95.5602 12.7954 94.9793 12.1982C92.9461 10.1079 90.0415 8.76407 86.8465 8.76407C83.6515 8.76407 80.8921 10.1079 78.7137 12.1982C76.6805 14.2885 75.3735 17.2747 75.3735 20.5595C75.3735 21.1567 75.3735 21.754 75.5187 22.2019L69.1286 27.7263C68.2573 25.4867 67.8216 23.0977 67.8216 20.4102C67.8216 15.0351 70 10.1079 73.3403 6.52443C76.8257 3.23963 81.6183 1 86.8465 1Z" fill="#3880F4"/>
<path d="M42.6971 2.19446H75.3735C74.0664 3.09031 72.9046 3.98617 71.7427 5.18064C70.2905 6.67373 68.9834 8.46544 67.9668 10.2571H56.0581V28.7715L46.3278 37.1328V10.2571H33.693L42.6971 2.19446Z" fill="#3880F4"/>
<path d="M21.3485 10.7051V39.9697H11.6183V19.0664L21.3485 10.7051ZM0 2.19446H39.9378L30.9336 10.2571H21.4938H11.7635H0V2.19446Z" fill="#3880F4"/>
</svg>
