<svg width="887" height="589" viewBox="0 0 887 589" fill="none" xmlns="http://www.w3.org/2000/svg">
<g opacity="0.6">
<path d="M527.883 535.741L843.11 270.157C856.83 279.304 871.203 287.797 886.229 294.657L600.401 535.741H527.883Z" fill="url(#paint0_linear)"/>
<path d="M282 563.5L770 149.5C770.5 152.5 787.5 192.5 790.5 195L354.519 563.5H282Z" fill="url(#paint1_linear)"/>
<path d="M256.428 262.317V442.312H195.343V313.604L256.428 262.317Z" fill="url(#paint2_linear)"/>
<path d="M0 176.402H538.989L417.471 282.57H289.421V283.224H158.43V282.57H0V176.402Z" fill="url(#paint3_linear)"/>
<path d="M256.428 283.224H231.602L256.428 262.317V283.224Z" fill="#E6F5FE"/>
<path d="M393.625 94.4079H715.059L642.54 157.455H566.428V157.782H488.357V157.455H393.625V94.4079Z" fill="url(#paint4_linear)"/>
<path d="M592.888 0C677.819 0 754.911 34.6271 810.77 90.1612C844.089 123.482 869.569 164.316 884.922 209.723H749.685C742.171 197.963 733.678 186.856 723.879 177.056C690.559 143.735 644.173 122.828 593.215 122.828C542.256 122.828 495.87 143.409 462.551 177.056C429.231 210.376 408.325 256.763 408.325 307.724C408.325 316.871 408.978 326.018 410.285 334.838L307.06 422.059C293.014 386.778 285.174 348.231 285.174 307.724C285.174 222.79 319.473 145.695 375.332 89.8345C430.865 34.6271 507.956 0 592.888 0Z" fill="url(#paint5_linear)"/>
<path d="M772.551 209.723H749.685C743.805 200.576 737.272 191.756 730.085 183.916L770.264 149.289C775.818 164.969 782.351 180.322 790.191 194.696L772.551 209.723Z" fill="url(#paint6_linear)"/>
<path d="M463.204 176.402L462.551 177.056C434.785 204.823 415.838 241.41 410.285 282.244H289.421V282.897H286.154C289.094 245.003 298.894 209.069 314.574 176.402H463.204Z" fill="#D0EDF8"/>
<path d="M665.08 137.855C642.867 128.382 618.367 123.155 592.888 123.155C553.035 123.155 515.796 135.895 485.743 157.455H393.625V94.4079H715.059L665.08 137.855Z" fill="url(#paint7_linear)"/>
<path d="M231.602 306.091V588.661H135.891V386.125L231.602 306.091Z" fill="url(#paint8_linear)"/>
<path d="M777.778 377.305C771.898 389.065 764.385 399.845 755.238 408.992C733.352 430.879 703.299 444.273 670.307 444.273C667.367 444.273 664.427 444.599 660.833 444.926H593.215L652.994 393.965C658.547 395.272 664.427 395.925 670.307 395.925C688.926 395.925 705.912 388.739 718.652 377.305H777.778Z" fill="#A2DCF6"/>
<path d="M777.777 377.305C774.511 383.512 770.918 389.719 766.671 395.272L723.879 431.206C707.872 439.373 689.579 443.946 670.306 443.946C667.366 443.946 664.426 444.273 660.833 444.599H635.68L702.972 388.085C708.852 385.145 714.079 381.552 718.652 377.305H777.777Z" fill="#B1E2FA"/>
<path d="M670.306 203.516C703.625 203.516 733.678 216.91 755.238 238.796C768.304 251.863 778.104 267.544 784.31 285.51H731.391C728.451 280.937 725.185 276.69 721.265 272.77C708.199 259.703 690.232 251.537 670.306 251.537C650.38 251.537 632.414 259.703 619.347 272.77C606.281 285.837 598.114 303.804 598.114 323.731C598.114 327.324 598.441 330.918 598.768 334.184L558.588 368.485C553.035 354.765 550.095 339.738 550.095 324.058C550.095 290.737 563.488 260.683 585.374 239.123C606.934 216.91 636.987 203.516 670.306 203.516Z" fill="url(#paint9_linear)"/>
<path d="M606.281 290.084C601.055 300.211 598.115 311.644 598.115 323.731C598.115 327.324 598.441 330.918 598.768 334.184L558.589 368.485C554.669 359.011 552.056 348.558 550.749 338.105L606.281 290.084ZM701.993 207.763C718.979 212.336 734.332 220.503 747.072 231.61L709.832 263.624C698.399 256.11 684.68 251.537 669.98 251.537C661.813 251.537 653.647 252.843 646.46 255.457L701.993 207.763Z" fill="#C9EAF9"/>
<path d="M391.339 210.049H597.461C589.295 215.276 581.782 221.483 574.922 228.343C565.449 237.816 557.609 248.27 551.402 259.703H475.617V373.712L414.205 424.999V259.703H334.173L391.339 210.049Z" fill="#9FDDF9"/>
<path d="M120.864 210.049H373.372L316.534 259.703H256.428V260.03H195.343V259.703H120.864V210.049Z" fill="url(#paint10_linear)"/>
<path d="M231.602 306.091V442.313H195.343V336.471L231.602 306.091Z" fill="#E6F5FE"/>
<path d="M288.767 259.703C291.38 242.717 295.627 226.056 300.853 210.049H373.372L316.533 259.703H288.767Z" fill="#E6F5FE"/>
<path d="M500.77 210.049L417.471 282.57H414.205V259.703H334.5L391.339 210.049H500.77Z" fill="#D0EDF8"/>
<path d="M436.091 210.049C426.291 225.403 419.105 242.39 414.205 260.683V259.703H334.173L391.012 210.049H436.091Z" fill="#E6F5FE"/>
<path d="M489.01 444.599L602.034 347.251C603.341 350.845 604.648 354.111 606.608 357.378L505.343 444.599H489.01Z" fill="#CDECF8"/>
<path d="M523.636 444.599L613.141 367.505C615.101 369.792 617.061 372.405 619.348 374.365C619.674 374.692 620.001 375.018 620.327 375.345L539.969 444.273H523.636V444.599Z" fill="#A2DCF6"/>
<path d="M556.628 444.599L629.474 383.185C632.74 385.472 636.007 387.105 639.6 388.739L573.288 444.273H556.628V444.599Z" fill="#B4DFF2"/>
</g>
<defs>
<linearGradient id="paint0_linear" x1="849" y1="282" x2="554" y2="553.5" gradientUnits="userSpaceOnUse">
<stop stop-color="#A5DEF5"/>
<stop offset="1" stop-color="#A5DEF5" stop-opacity="0"/>
</linearGradient>
<linearGradient id="paint1_linear" x1="757.5" y1="184" x2="321" y2="564" gradientUnits="userSpaceOnUse">
<stop stop-color="#A5DEF5"/>
<stop offset="1" stop-color="#A5DEF5" stop-opacity="0"/>
</linearGradient>
<linearGradient id="paint2_linear" x1="225.886" y1="262.317" x2="226" y2="401.5" gradientUnits="userSpaceOnUse">
<stop stop-color="#D0EDF8"/>
<stop offset="1" stop-color="#D0EDF8" stop-opacity="0"/>
</linearGradient>
<linearGradient id="paint3_linear" x1="501.003" y1="229.478" x2="159" y2="230" gradientUnits="userSpaceOnUse">
<stop stop-color="#A3DEF7"/>
<stop offset="1" stop-color="#D0EDF8" stop-opacity="0.17"/>
</linearGradient>
<linearGradient id="paint4_linear" x1="677.744" y1="141.108" x2="410.495" y2="136.832" gradientUnits="userSpaceOnUse">
<stop stop-color="#83CFF2"/>
<stop offset="1" stop-color="#A2DBF6"/>
</linearGradient>
<linearGradient id="paint5_linear" x1="845.933" y1="163.913" x2="322.125" y2="184.58" gradientUnits="userSpaceOnUse">
<stop stop-color="#3880F4" stop-opacity="0.5"/>
<stop offset="1" stop-color="#B7E4F9"/>
</linearGradient>
<linearGradient id="paint6_linear" x1="776.5" y1="167" x2="745.5" y2="200" gradientUnits="userSpaceOnUse">
<stop stop-color="#65B8FC"/>
<stop offset="1" stop-color="#A2D1F9" stop-opacity="0"/>
</linearGradient>
<linearGradient id="paint7_linear" x1="688.434" y1="94.0717" x2="393.391" y2="125.429" gradientUnits="userSpaceOnUse">
<stop stop-color="#9BDCF8"/>
<stop offset="1" stop-color="#B8E4F9"/>
</linearGradient>
<linearGradient id="paint8_linear" x1="183.746" y1="306.091" x2="183.746" y2="588.661" gradientUnits="userSpaceOnUse">
<stop stop-color="#D0EDF8"/>
<stop offset="1" stop-color="#D0EDF8" stop-opacity="0"/>
</linearGradient>
<linearGradient id="paint9_linear" x1="748.298" y1="267.249" x2="590.087" y2="286.491" gradientUnits="userSpaceOnUse">
<stop stop-color="#83D5F7"/>
<stop offset="1" stop-color="#B6E4F9"/>
</linearGradient>
<linearGradient id="paint10_linear" x1="349.5" y1="230" x2="145.5" y2="227.5" gradientUnits="userSpaceOnUse">
<stop stop-color="#DBF1FB"/>
<stop offset="1" stop-color="#DBF1FB" stop-opacity="0"/>
</linearGradient>
</defs>
</svg>
