<svg width="108" height="65" viewBox="0 0 108 65" fill="none" xmlns="http://www.w3.org/2000/svg">
<g clip-path="url(#clip0)">
<path d="M1.70145 23.8209C25.7492 22.4597 26.4676 38 23.8209 45.9403V66.9254L66.3582 68.6269C69.194 51.4229 68.2865 15.3134 41.9701 8.50745C15.6537 1.70148 4.15916 15.8806 1.70145 23.8209Z" fill="#99F2DC"/>
<path d="M74.0492 28.1412C74.2441 28.336 74.3415 28.4334 74.3415 28.5307C74.2441 28.8229 74.2441 28.5307 74.0492 28.1412ZM47.9371 8.86108C51.4447 9.25058 60.8957 12.0744 66.4494 14.5088C65.67 14.5088 64.8905 14.4114 63.9162 14.3141C62.4547 14.2167 61.6752 14.8983 61.4803 16.2615C61.2855 17.7222 63.6239 19.5723 66.352 21.8119C68.6904 23.662 71.4185 25.9016 73.0749 27.2649C72.2954 27.0701 71.7108 26.9727 71.3211 26.8754C68.593 26.1938 67.5212 25.9016 67.9109 29.0176C68.0084 29.5045 68.2032 29.894 68.4955 30.3809C69.3724 31.7441 71.9057 35.4443 72.5877 44.8897L76.4851 44.4028C75.9979 38.0734 74.7313 33.8863 73.6595 31.3546C76.3876 31.6467 77.7517 30.7704 78.1414 29.3097C78.8235 26.6806 73.2698 22.104 68.9827 18.6959C68.8853 18.5985 68.7878 18.5012 68.6904 18.5012C69.957 18.4038 70.9314 18.3064 71.6134 18.1117C74.5364 17.0405 74.7313 15.4825 72.7826 13.6324C72.1006 12.9508 70.8339 12.1718 69.1776 11.3928C63.5264 8.7637 52.7113 5.55034 48.7166 5.06347L47.9371 8.86108Z" fill="black"/>
<path d="M69.6873 28.6771C69.8772 28.8713 69.9722 28.9684 69.9722 29.0654C69.8772 29.3566 69.8772 29.0654 69.6873 28.6771ZM44.2388 9.45735C47.6572 9.84563 56.8681 12.6606 62.2806 15.0874C61.521 15.0874 60.7613 14.9903 59.8117 14.8933C58.3874 14.7962 57.6277 15.4757 57.4378 16.8346C57.2479 18.2907 59.5269 20.135 62.1857 22.3676C64.4647 24.2119 67.1235 26.4445 68.7377 27.8035C67.9781 27.6094 67.4083 27.5123 67.0285 27.4152C64.3697 26.7358 63.3252 26.4445 63.705 29.5508C63.7999 30.0361 63.9899 30.4244 64.2747 30.9097C65.1294 32.2687 67.5982 35.9574 68.2629 45.3731L72.0612 44.8878C71.5864 38.5782 70.352 34.4043 69.3075 31.8804C71.9663 32.1717 73.2957 31.298 73.6755 29.842C74.3402 27.2211 68.9276 22.6588 64.7495 19.2614C64.6546 19.1643 64.5596 19.0672 64.4647 19.0672C65.6991 18.9702 66.6487 18.8731 67.3134 18.679C70.1621 17.6112 70.352 16.0581 68.4529 14.2138C67.7882 13.5343 66.5537 12.7577 64.9394 11.9812C59.4319 9.36028 48.8917 6.15698 44.9984 5.67163L44.2388 9.45735Z" fill="#99F2DC"/>
<path d="M23.7737 52.777L23.9685 52.2901C25.5275 46.545 28.4505 35.9312 24.6506 29.7966C21.7276 25.0253 14.7124 23.662 7.11257 22.2014C6.13824 22.0066 5.1639 21.8119 4.18957 21.6171C5.26134 16.7484 11.2048 12.4639 18.902 10.2243C23.2865 8.95845 28.2556 8.3742 33.2247 8.7637C38.1938 9.1532 43.1629 10.5164 47.5474 12.9508C58.265 18.988 66.1571 32.1336 63.7213 55.7956L63.429 58.3274L65.9623 58.0352C71.0288 57.451 75.803 56.672 80.1875 55.9904C86.9104 54.9192 93.1461 53.9455 100.064 53.556C101.331 53.4586 102.5 54.5298 103.084 55.6982C103.279 56.1851 103.474 56.7694 103.474 57.2562C103.474 57.7431 103.474 58.1326 103.279 58.5221C102.889 59.3011 101.818 59.9827 99.869 59.9827L12.4714 60.567V64.6567L100.064 63.9751C103.961 63.9751 106.202 62.3197 107.177 60.1775C107.664 59.2037 107.761 58.0352 107.761 56.9641C107.664 55.893 107.371 54.9193 106.884 53.9455C105.618 51.3164 103.084 49.2715 99.9665 49.4663C92.8538 49.8558 86.5207 50.9269 79.6029 51.998C75.9979 52.5823 72.198 53.1665 68.0084 53.7508C69.7622 29.6992 61.188 16.0668 49.496 9.44532C44.5269 6.62146 38.9733 5.16084 33.4195 4.77135C27.9633 4.38185 22.507 4.96609 17.6354 6.32934C7.40487 9.25058 -0.194923 15.6773 -0.194923 23.2725V24.9279L1.36401 25.3174C2.92294 25.6095 4.57931 25.999 6.13824 26.2911C12.7637 27.557 18.9994 28.8229 20.9481 32.0362C23.7737 36.7102 21.143 46.2529 19.7789 51.4138L19.6815 51.9006L23.7737 52.777Z" fill="black"/>
<path fill-rule="evenodd" clip-rule="evenodd" d="M6.62543 16.1642C4.28703 16.1642 2.4358 17.9169 2.4358 20.0592C2.4358 22.2014 4.28703 23.9541 6.62543 23.9541C8.96383 23.9541 10.8151 22.2014 10.8151 20.0592C10.8151 17.9169 8.96383 16.1642 6.62543 16.1642Z" fill="black"/>
<path fill-rule="evenodd" clip-rule="evenodd" d="M34.6862 13.2429C32.7376 13.2429 31.1786 14.7035 31.1786 16.4563C31.1786 18.209 32.7376 19.6697 34.6862 19.6697C36.6349 19.6697 38.1938 18.209 38.1938 16.4563C38.1938 14.7035 36.5375 13.2429 34.6862 13.2429Z" fill="black"/>
<path d="M40.1425 7.78996C41.5065 5.45297 42.6757 4.5766 43.4552 4.47922C43.5526 4.47922 43.7475 4.47922 43.8449 4.5766C44.0398 4.67397 44.1372 4.86872 44.2347 5.06347C44.7218 5.93984 44.7218 7.20571 44.0398 8.27683L47.5474 10.3217C49.0089 7.88733 48.9115 5.06347 47.7423 3.0186C47.2551 2.23961 46.6705 1.55798 45.891 1.07111C45.1116 0.584239 44.1372 0.292115 43.0655 0.38949C41.0194 0.486864 38.681 1.94748 36.5374 5.64772L40.1425 7.78996Z" fill="black"/>
<path d="M26.7941 6.81621C26.7941 3.99235 25.6249 1.85011 24.066 0.778987C23.3839 0.292114 22.507 -1.00136e-05 21.7276 -1.00136e-05C20.8507 -1.00136e-05 20.0712 0.292114 19.2917 0.876361C17.8302 1.94748 16.661 4.28447 16.661 7.9847H20.7532C20.7532 5.74509 21.143 4.47922 21.7276 4.08972C21.7276 4.08972 21.825 4.08972 21.825 4.1871C22.3122 4.5766 22.7019 5.45297 22.7019 6.81621H26.7941Z" fill="black"/>
<path fill-rule="evenodd" clip-rule="evenodd" d="M21.6302 10.9059C19.6815 10.9059 18.1226 12.3666 18.1226 14.1193C18.1226 15.872 19.6815 17.3327 21.6302 17.3327C23.5788 17.3327 25.1378 15.872 25.1378 14.1193C25.1378 12.3666 23.5788 10.9059 21.6302 10.9059Z" fill="black"/>
<path d="M12.2765 25.8042C12.0817 26.5832 11.5945 28.4334 11.1073 29.894C10.815 30.673 10.6202 31.452 10.5227 31.7441L14.4201 32.9126C14.6149 32.231 14.8098 31.6467 15.0047 31.0625C15.4918 29.5045 16.0764 27.557 16.2713 26.5832L12.2765 25.8042Z" fill="black"/>
<path d="M16.6611 27.3622C16.4662 28.1412 15.979 29.9914 15.4919 31.452C15.1996 32.231 15.0047 33.01 14.9073 33.3021L18.8046 34.4706C18.9995 33.789 19.1943 33.2047 19.3892 32.6205C19.8764 31.0625 20.461 29.115 20.6558 28.1412L16.6611 27.3622Z" fill="black"/>
<path d="M20.9805 29.2634C23.4786 31.0379 30.2295 32.9711 37.2489 26.5082" stroke="black" stroke-width="4"/>
</g>
<defs>
<clipPath id="clip0">
<rect width="107.761" height="64.6567" fill="white" transform="matrix(-1 0 0 1 107.761 0)"/>
</clipPath>
</defs>
</svg>
