<svg width="42" height="37" viewBox="0 0 42 37" fill="none" xmlns="http://www.w3.org/2000/svg">
<path fill-rule="evenodd" clip-rule="evenodd" d="M41 27.5172C41.5523 27.5172 42 27.0695 42 26.5172L42 1C42 0.447716 41.5523 0 41 0L1.00001 1.06038e-05C0.447728 1.07376e-05 1.3068e-05 0.447727 1.27761e-05 1.00001L0 26.5172C0 27.0695 0.447715 27.5172 1 27.5172H10.1379V35.4098C10.1379 36.2756 11.1634 36.7322 11.8069 36.1531L21.4023 27.5172L41 27.5172Z" fill="white"/>
<path d="M13 14.0052C13 13.3647 13.1798 12.8703 13.5393 12.5222C13.9055 12.1741 14.4349 12 15.1273 12C15.7865 12 16.2926 12.1741 16.6454 12.5222C16.9983 12.8703 17.1748 13.3647 17.1748 14.0052C17.1748 14.6319 16.9917 15.1227 16.6255 15.4778C16.2659 15.8259 15.7665 16 15.1273 16C14.4682 16 13.9488 15.8259 13.5693 15.4778C13.1898 15.1297 13 14.6388 13 14.0052Z" fill="#1A64DA"/>
<path d="M18.9126 14.0052C18.9126 13.3647 19.0924 12.8703 19.4519 12.5222C19.8181 12.1741 20.3475 12 21.04 12C21.6991 12 22.2052 12.1741 22.5581 12.5222C22.9109 12.8703 23.0874 13.3647 23.0874 14.0052C23.0874 14.6319 22.9043 15.1227 22.5381 15.4778C22.1785 15.8259 21.6792 16 21.04 16C20.3808 16 19.8614 15.8259 19.4819 15.4778C19.1024 15.1297 18.9126 14.6388 18.9126 14.0052Z" fill="#1A64DA"/>
<path d="M24.8252 14.0052C24.8252 13.3647 25.005 12.8703 25.3645 12.5222C25.7308 12.1741 26.2601 12 26.9526 12C27.6117 12 28.1178 12.1741 28.4707 12.5222C28.8236 12.8703 29 13.3647 29 14.0052C29 14.6319 28.8169 15.1227 28.4507 15.4778C28.0911 15.8259 27.5918 16 26.9526 16C26.2934 16 25.774 15.8259 25.3945 15.4778C25.015 15.1297 24.8252 14.6388 24.8252 14.0052Z" fill="#1A64DA"/>
</svg>
